<svg id="b682e9a7-0976-463f-8509-289a73a69ee6" data-name="Layer 1" xmlns="http://www.w3.org/2000/svg" width="884" height="453.11133" viewBox="0 0 884 453.11133"><path d="M383.91884,458.3877h-.04761a20.0432,20.0432,0,0,1-11.15723-3.24024,20.79283,20.79283,0,0,1-9.45117-18.21045l7.75366-193.69092a20.57074,20.57074,0,0,1,20.61-19.80175H832.663a58.23648,58.23648,0,0,1,38.29541,14.35888L977.23378,330.54a86.30407,86.30407,0,0,1,42.16821,79.56348c-.6604,11.19482-1.12012,18.04638-1.42431,22.57959a191.16277,191.16277,0,0,0-.56739,21.251l.02222,3.04883-.50269.001Z" transform="translate(-158 -223.44434)" fill="#f0f0f0"/><path d="M767.0331,397.54248H405.60219a15.77765,15.77765,0,0,1-15.75977-15.75977V274.37939a15.77764,15.77764,0,0,1,15.75977-15.75976H767.0331a15.77764,15.77764,0,0,1,15.75976,15.75976V381.78271A15.77764,15.77764,0,0,1,767.0331,397.54248Z" transform="translate(-158 -223.44434)" fill="#e4e4e4"/><path d="M905.911,352.50732a8.48487,8.48487,0,0,1-2.28726-.31579l-76.28555-21.33435a8.47827,8.47827,0,0,1-6.16114-8.01294l-.59469-46.38524a8.4342,8.4342,0,0,1,8.66337-8.53876l45.26282,1.24037a8.38953,8.38953,0,0,1,5.79321,2.52868L913.02158,305.091a8.47038,8.47038,0,0,1,2.40407,6.18206l-1.10244,33.07829a8.4421,8.4421,0,0,1-8.41226,8.156Z" transform="translate(-158 -223.44434)" fill="#fff"/><circle cx="810.91752" cy="230.87142" r="38.18206" fill="#3f3d56"/><circle cx="810.91752" cy="230.87142" r="24.156" fill="#fff"/><circle cx="374.94072" cy="231.26103" r="38.18206" fill="#3f3d56"/><circle cx="374.94072" cy="231.26103" r="24.156" fill="#fff"/><path d="M917.099,358.19189h-3.11694a10.25183,10.25183,0,0,1-10.24023-10.24023V325.354a10.25183,10.25183,0,0,1,10.24023-10.24023H917.099A10.25183,10.25183,0,0,1,927.33925,325.354v22.59766A10.25183,10.25183,0,0,1,917.099,358.19189Z" transform="translate(-158 -223.44434)" fill="#3f3d56"/><rect x="251.04383" y="95.67575" width="183.05837" height="4.67535" fill="#f0f0f0"/><rect x="251.04383" y="126.84478" width="183.05837" height="4.67535" fill="#f0f0f0"/><path d="M459.30385,388.48291H446.057a5.46631,5.46631,0,0,1,0-10.93262h13.24683a5.46631,5.46631,0,1,1,0,10.93262Z" transform="translate(-158 -223.44434)" fill="#f0f0f0"/><path d="M474.88832,378.55029a4.46631,4.46631,0,1,0,0,8.93262h13.24683a4.46631,4.46631,0,1,0,0-8.93262Z" transform="translate(-158 -223.44434)" fill="#f0f0f0"/><path d="M516.96645,388.48291H503.71962a5.46631,5.46631,0,1,1,0-10.93262h13.24683a5.46631,5.46631,0,1,1,0,10.93262Z" transform="translate(-158 -223.44434)" fill="#f0f0f0"/><path d="M592.96254,399.39209H428.50282a6.63529,6.63529,0,0,1,0-13.27051H592.96254a6.63529,6.63529,0,0,1,0,13.27051Z" transform="translate(-158 -223.44434)" fill="#f0f0f0"/><path d="M431.42958,351.106h-6.33374a1.9912,1.9912,0,0,1-1.98926-1.98877V335.25146a1.99172,1.99172,0,0,1,1.98926-1.98974.40761.40761,0,0,0,.40723-.40723V329.8584a2.75964,2.75964,0,0,1,5.51928,0v2.99609a.40761.40761,0,0,0,.40723.40723,1.99172,1.99172,0,0,1,1.98926,1.98974v13.86573A1.9912,1.9912,0,0,1,431.42958,351.106Z" transform="translate(-158 -223.44434)" fill="#f0f0f0"/><path d="M446.56215,351.106h-6.33374a1.99119,1.99119,0,0,1-1.98926-1.98877V335.25146a1.99171,1.99171,0,0,1,1.98926-1.98974.40782.40782,0,0,0,.40747-.40723V329.8584a2.75952,2.75952,0,0,1,5.519,0v2.99609a.40761.40761,0,0,0,.40723.40723,1.99193,1.99193,0,0,1,1.9895,1.98974v13.86573A1.9914,1.9914,0,0,1,446.56215,351.106Z" transform="translate(-158 -223.44434)" fill="#f0f0f0"/><path d="M543.76015,322.00488h-6.33374a1.99183,1.99183,0,0,1-1.98951-1.98926V306.15039a1.99193,1.99193,0,0,1,1.98951-1.98975.40759.40759,0,0,0,.40722-.40722v-2.9961a2.75953,2.75953,0,0,1,5.519,0v2.9961a.40781.40781,0,0,0,.40747.40722,1.99171,1.99171,0,0,1,1.98925,1.98975v13.86523A1.99161,1.99161,0,0,1,543.76015,322.00488Z" transform="translate(-158 -223.44434)" fill="#f0f0f0"/><path d="M558.89271,322.00488H552.559a1.99182,1.99182,0,0,1-1.9895-1.98926V306.15039a1.99193,1.99193,0,0,1,1.9895-1.98975.4076.4076,0,0,0,.40723-.40722v-2.9961a2.75965,2.75965,0,0,1,5.51929,0v2.9961a.4076.4076,0,0,0,.40722.40722,1.99172,1.99172,0,0,1,1.98926,1.98975v13.86523A1.99161,1.99161,0,0,1,558.89271,322.00488Z" transform="translate(-158 -223.44434)" fill="#f0f0f0"/><rect x="502.19888" y="60.9111" width="86.13938" height="114.6585" fill="#f0f0f0"/><rect x="502.19888" y="86.8482" width="86.13938" height="2.32809" fill="#e4e4e4"/><rect x="502.19888" y="114.7853" width="86.13938" height="2.32809" fill="#e4e4e4"/><rect x="502.19888" y="142.72239" width="86.13938" height="2.32809" fill="#e4e4e4"/><path d="M466.12855,352.40723h-6.47094a3.37984,3.37984,0,0,1-3.37574-3.376v-8.2168a3.37984,3.37984,0,0,1,3.37574-3.376h6.47094a3.37984,3.37984,0,0,1,3.37574,3.376v8.2168A3.37984,3.37984,0,0,1,466.12855,352.40723Z" transform="translate(-158 -223.44434)" fill="#f0f0f0"/><path d="M673.7375,345.39273a8.42429,8.42429,0,0,1-1.2974.03025.283.283,0,0,0-.31145.2456l-.82756,6.20761a2.52017,2.52017,0,0,1-.53391,1.22978,2.68024,2.68024,0,0,0-.60333,2.04844v10.54474s-.05338,1.406,1.0269,1.406a15.61671,15.61671,0,0,0,3.894,0s.86493-.16373.86493-1.46114V355.26119a2.53959,2.53959,0,0,0-.53391-2.06446,2.58423,2.58423,0,0,1-.51789-1.22265l-.8596-6.33753A.283.283,0,0,0,673.7375,345.39273Z" transform="translate(-158 -223.44434)" fill="#e4e4e4"/><path d="M684.21391,345.39273a8.42429,8.42429,0,0,1-1.2974.03025.283.283,0,0,0-.31144.2456l-.82757,6.20761a2.52007,2.52007,0,0,1-.53391,1.22978,2.68019,2.68019,0,0,0-.60332,2.04844v10.54474s-.05339,1.406,1.02689,1.406a15.61671,15.61671,0,0,0,3.894,0s.86494-.16373.86494-1.46114V355.26119a2.53963,2.53963,0,0,0-.53392-2.06446,2.58412,2.58412,0,0,1-.51788-1.22265l-.8596-6.33753A.283.283,0,0,0,684.21391,345.39273Z" transform="translate(-158 -223.44434)" fill="#e4e4e4"/><path d="M694.69033,345.39273a8.42435,8.42435,0,0,1-1.2974.03025.283.283,0,0,0-.31145.2456l-.82757,6.20761A2.52,2.52,0,0,1,691.72,353.106a2.68023,2.68023,0,0,0-.60332,2.04844v10.54474s-.05339,1.406,1.02689,1.406a15.61671,15.61671,0,0,0,3.894,0s.86494-.16373.86494-1.46114V355.26119a2.53966,2.53966,0,0,0-.53391-2.06446,2.584,2.584,0,0,1-.51789-1.22265l-.8596-6.33753A.283.283,0,0,0,694.69033,345.39273Z" transform="translate(-158 -223.44434)" fill="#e4e4e4"/><path d="M673.7375,317.45563a8.42555,8.42555,0,0,1-1.2974.03026.283.283,0,0,0-.31145.2456l-.82756,6.2076a2.52017,2.52017,0,0,1-.53391,1.22978,2.68024,2.68024,0,0,0-.60333,2.04844v10.54475s-.05338,1.406,1.0269,1.406a15.61671,15.61671,0,0,0,3.894,0s.86493-.16373.86493-1.46114V327.32409a2.5396,2.5396,0,0,0-.53391-2.06446,2.58419,2.58419,0,0,1-.51789-1.22265l-.8596-6.33753A.283.283,0,0,0,673.7375,317.45563Z" transform="translate(-158 -223.44434)" fill="#e4e4e4"/><path d="M684.21391,317.45563a8.42555,8.42555,0,0,1-1.2974.03026.283.283,0,0,0-.31144.2456l-.82757,6.2076a2.52007,2.52007,0,0,1-.53391,1.22978,2.68019,2.68019,0,0,0-.60332,2.04844v10.54475s-.05339,1.406,1.02689,1.406a15.61671,15.61671,0,0,0,3.894,0s.86494-.16373.86494-1.46114V327.32409a2.53964,2.53964,0,0,0-.53392-2.06446,2.58408,2.58408,0,0,1-.51788-1.22265l-.8596-6.33753A.283.283,0,0,0,684.21391,317.45563Z" transform="translate(-158 -223.44434)" fill="#e4e4e4"/><path d="M694.69033,317.45563a8.42561,8.42561,0,0,1-1.2974.03026.283.283,0,0,0-.31145.2456l-.82757,6.2076a2.52,2.52,0,0,1-.53391,1.22978,2.68023,2.68023,0,0,0-.60332,2.04844v10.54475s-.05339,1.406,1.02689,1.406a15.61671,15.61671,0,0,0,3.894,0s.86494-.16373.86494-1.46114V327.32409a2.53967,2.53967,0,0,0-.53391-2.06446,2.584,2.584,0,0,1-.51789-1.22265l-.8596-6.33753A.283.283,0,0,0,694.69033,317.45563Z" transform="translate(-158 -223.44434)" fill="#e4e4e4"/><path d="M716.22517,317.45563a8.42555,8.42555,0,0,1-1.2974.03026.283.283,0,0,0-.31145.2456l-.82756,6.2076a2.52017,2.52017,0,0,1-.53391,1.22978,2.68024,2.68024,0,0,0-.60333,2.04844v10.54475s-.05339,1.406,1.0269,1.406a15.61671,15.61671,0,0,0,3.894,0s.86493-.16373.86493-1.46114V327.32409a2.5396,2.5396,0,0,0-.53391-2.06446,2.58409,2.58409,0,0,1-.51789-1.22265l-.8596-6.33753A.283.283,0,0,0,716.22517,317.45563Z" transform="translate(-158 -223.44434)" fill="#e4e4e4"/><path d="M726.70158,317.45563a8.42555,8.42555,0,0,1-1.2974.03026.283.283,0,0,0-.31144.2456l-.82757,6.2076a2.52017,2.52017,0,0,1-.53391,1.22978,2.68024,2.68024,0,0,0-.60333,2.04844v10.54475s-.05338,1.406,1.0269,1.406a15.61671,15.61671,0,0,0,3.894,0s.86494-.16373.86494-1.46114V327.32409a2.53964,2.53964,0,0,0-.53392-2.06446,2.58419,2.58419,0,0,1-.51789-1.22265l-.8596-6.33753A.283.283,0,0,0,726.70158,317.45563Z" transform="translate(-158 -223.44434)" fill="#e4e4e4"/><path d="M737.178,317.45563a8.42561,8.42561,0,0,1-1.2974.03026.283.283,0,0,0-.31145.2456l-.82757,6.2076a2.52,2.52,0,0,1-.53391,1.22978,2.68019,2.68019,0,0,0-.60332,2.04844v10.54475s-.05339,1.406,1.02689,1.406a15.61671,15.61671,0,0,0,3.894,0s.86494-.16373.86494-1.46114V327.32409a2.53967,2.53967,0,0,0-.53391-2.06446,2.584,2.584,0,0,1-.51789-1.22265l-.8596-6.33753A.283.283,0,0,0,737.178,317.45563Z" transform="translate(-158 -223.44434)" fill="#e4e4e4"/><path d="M691.78021,290.10056a8.42555,8.42555,0,0,1-1.2974.03025.283.283,0,0,0-.31145.2456l-.82756,6.20761a2.52017,2.52017,0,0,1-.53391,1.22978,2.68022,2.68022,0,0,0-.60333,2.04843V310.407s-.05339,1.406,1.0269,1.406a15.61671,15.61671,0,0,0,3.894,0s.86493-.16373.86493-1.46114V299.969a2.53959,2.53959,0,0,0-.53391-2.06446,2.58413,2.58413,0,0,1-.51789-1.22266l-.8596-6.33752A.283.283,0,0,0,691.78021,290.10056Z" transform="translate(-158 -223.44434)" fill="#e4e4e4"/><path d="M702.25662,290.10056a8.42555,8.42555,0,0,1-1.2974.03025.283.283,0,0,0-.31145.2456l-.82756,6.20761a2.52017,2.52017,0,0,1-.53391,1.22978,2.68022,2.68022,0,0,0-.60333,2.04843V310.407s-.05338,1.406,1.0269,1.406a15.61671,15.61671,0,0,0,3.894,0s.86493-.16373.86493-1.46114V299.969a2.53959,2.53959,0,0,0-.53391-2.06446,2.58423,2.58423,0,0,1-.51789-1.22266l-.8596-6.33752A.283.283,0,0,0,702.25662,290.10056Z" transform="translate(-158 -223.44434)" fill="#e4e4e4"/><path d="M712.733,290.10056a8.42571,8.42571,0,0,1-1.29741.03025.283.283,0,0,0-.31144.2456l-.82757,6.20761a2.52007,2.52007,0,0,1-.53391,1.22978,2.68018,2.68018,0,0,0-.60332,2.04843V310.407s-.05339,1.406,1.02689,1.406a15.61671,15.61671,0,0,0,3.894,0s.86494-.16373.86494-1.46114V299.969a2.53966,2.53966,0,0,0-.53391-2.06446,2.584,2.584,0,0,1-.51789-1.22266l-.8596-6.33752A.283.283,0,0,0,712.733,290.10056Z" transform="translate(-158 -223.44434)" fill="#e4e4e4"/><path d="M1041,493.55566H320a1,1,0,0,1,0-2h721a1,1,0,0,1,0,2Z" transform="translate(-158 -223.44434)" fill="#cacaca"/><path d="M808.92965,545.65693a5.41493,5.41493,0,0,0,.86512-8.25794l8.67211-17.17789-9.933,1.15215L801.82155,537.509a5.44427,5.44427,0,0,0,7.1081,8.1479Z" transform="translate(-158 -223.44434)" fill="#ffb7b7"/><polygon points="720.479 443.892 712.664 443.891 708.945 413.746 720.48 413.746 720.479 443.892" fill="#ffb7b7"/><path d="M880.47217,674.91194l-25.20051-.00093v-.31875a9.80926,9.80926,0,0,1,9.80874-9.80858h.00062l15.39162.00062Z" transform="translate(-158 -223.44434)" fill="#2f2e41"/><polygon points="677.767 443.892 669.952 443.891 666.234 413.746 677.768 413.746 677.767 443.892" fill="#ffb7b7"/><path d="M835.84779,674.91194l-25.20052-.00093v-.31875a9.80926,9.80926,0,0,1,9.80875-9.80858h.00062l15.39161.00062Z" transform="translate(-158 -223.44434)" fill="#2f2e41"/><polygon points="677.127 316.571 669.477 334.195 663.167 435.492 679.104 434.854 683.457 386.566 696.884 343.556 704.603 391.505 707.791 433.579 720.978 434.15 726.233 316.571 677.127 316.571" fill="#2f2e41"/><path d="M873.36615,453.05113l-22.17192.55461-13.01718,6.6825-.71437,49.302-8.11857,34.03894s50.72571,3.49112,57.73811-1.60881l-8.28739-38.887,11.11523-42.02569Z" transform="translate(-158 -223.44434)" fill="#6c63ff"/><path d="M841.60083,461.10544l-2.064-1.39392s-8.55109,2.56289-11.07849,13.965c0,0-1.93405,5.72055-2.78264,9.65356-.97334,4.51115-22.46652,45.948-22.46652,45.948l12.86825,3.69166,23.59213-38.153Z" transform="translate(-158 -223.44434)" fill="#6c63ff"/><path d="M889.56271,551.979a5.415,5.415,0,0,1,1.44562-8.17632l-3.59893-18.90326,9.23013,3.84658,2.00252,17.36114a5.44426,5.44426,0,0,1-9.07934,5.87186Z" transform="translate(-158 -223.44434)" fill="#ffb7b7"/><path d="M886.574,461.69646l2.36832-.77073s7.5128,4.82156,6.798,16.47855c0,0,.28158,6.03208.01271,10.0466-.30839,4.60464,3.825,50.3618,3.825,50.3618H886.19061l-5.73742-41.43692Z" transform="translate(-158 -223.44434)" fill="#6c63ff"/><path d="M878.80887,432.36684a15.36991,15.36991,0,1,1-15.36992-15.3699h0a15.33167,15.33167,0,0,1,15.3699,15.29333Q878.809,432.32855,878.80887,432.36684Z" transform="translate(-158 -223.44434)" fill="#ffb7b7"/><path d="M848.12011,411.72227c1.80051-3.87169,5.28484-3.10622,8.33213-1.79383,3.85892-.856,7.529-3.41861,11.68677-1.90308,4.09558,5.95679,17.84627,4.20421,14.92084,13.90189-.00383,2.32378,4.37261.97119,3.60857,4.777,2.31837,7.32423-8.36825,21.19523-14.5032,18.27422,1.51726-2.78073,4.98326-9.0967-.2737-9.72316-11.30853,10.52218-1.16675-20.03661-15.37566-11.14962C851.81122,428.4112,845.37041,416.02886,848.12011,411.72227Z" transform="translate(-158 -223.44434)" fill="#2f2e41"/><path d="M790.36015,499.25157a5.85655,5.85655,0,0,0-.58891.70976l-27.58642-.675-3.21825-5.88075-9.5099,3.6969,4.68552,10.9644a4.45138,4.45138,0,0,0,4.62713,2.67l31.16751-3.7651a5.8408,5.8408,0,1,0,.42332-7.72025Z" transform="translate(-158 -223.44434)" fill="#9f616a"/><polygon points="542.433 443.342 551.503 443.342 555.818 408.355 542.431 408.356 542.433 443.342" fill="#9f616a"/><path d="M698.11888,663.82506l17.86329-.00072h.00072a11.38449,11.38449,0,0,1,11.38388,11.38371v.36993l-29.24735.00108Z" transform="translate(-158 -223.44434)" fill="#2f2e41"/><polygon points="624.797 443.14 633.138 439.577 623.363 405.708 611.052 410.967 624.797 443.14" fill="#9f616a"/><path d="M779.50563,664.77015l16.427-7.01783.00066-.00028a11.38449,11.38449,0,0,1,14.94059,5.99672l.14531.34019-26.89581,11.49011Z" transform="translate(-158 -223.44434)" fill="#2f2e41"/><polygon points="586.522 283.386 587.178 294.015 568.005 296.067 547.943 298.214 553.848 282.074 586.522 283.386" fill="#9f616a"/><path d="M745.19539,510.64438c-.21735-.08531-21.87292-8.50905-35.1747-1.62117l-.32712.16953L707.04,496.13127l-1.51209-28.08157,9.83911-4.64915,2.709-6.06819,18.45207-1.09192,3.79184,5.20014,12.91,4.231-7.71585,45.09884Z" transform="translate(-158 -223.44434)" fill="#3f3d56"/><path d="M745.87353,485.2971l2.28233-17.93314,5.19687-1.58178.08762.03233a6.5428,6.5428,0,0,1,3.7174,5.03522c.74212,3.75312,6.331,27.10865,6.38742,27.3442l.056.23366-13.13158,5.25393Z" transform="translate(-158 -223.44434)" fill="#3f3d56"/><path d="M776.041,660.43585l17.48015-3.58567L765.5828,579.75823,756.021,553.4633s-6.06463-21.08316-8.80465-29.242l-1.65356-10.94735-39.14358,4.33269s-10.9327,16.05571-7.61142,42.22556l-1.50216,98.36265,17.48015.89642,14.64149-99.20359,25.69732,54.38269s8.09951,23.207,13.89447,28.23717Z" transform="translate(-158 -223.44434)" fill="#2f2e41"/><path d="M741.48263,452.0324H710.1421a2.43434,2.43434,0,0,1-2.43159-2.43159V436.092a18.10185,18.10185,0,1,1,36.20371,0v13.50885A2.43434,2.43434,0,0,1,741.48263,452.0324Z" transform="translate(-158 -223.44434)" fill="#2f2e41"/><circle cx="571.53211" cy="215.00194" r="13.27165" fill="#9f616a"/><path d="M748.19669,437.44284h-19.164l-.19656-2.75137-.98256,2.75137h-2.95084l-.38943-5.45314-1.94744,5.45314h-5.70973v-.27017a14.33546,14.33546,0,0,1,14.31925-14.31938h2.7019a14.33558,14.33558,0,0,1,14.31938,14.31938Z" transform="translate(-158 -223.44434)" fill="#2f2e41"/><path d="M728.87588,454.5541a2.48385,2.48385,0,0,1-.43033-.038l-14.03271-2.47592V428.84824h15.44731l-.38244.44589c-5.321,6.20563-1.31223,16.26814,1.55088,21.71389a2.39562,2.39562,0,0,1-.19036,2.54347A2.42184,2.42184,0,0,1,728.87588,454.5541Z" transform="translate(-158 -223.44434)" fill="#2f2e41"/><path d="M805.64846,496.95017a17.09677,17.09677,0,0,1-2.63277.0614.57421.57421,0,0,0-.632.49838l-1.67935,12.59687a5.11386,5.11386,0,0,1-1.08344,2.49553,5.4389,5.4389,0,0,0-1.2243,4.15682v21.39806s-.10834,2.85307,2.08383,2.85307a31.6908,31.6908,0,0,0,7.90193,0s1.75518-.33226,1.75518-2.965V516.97586a5.15361,5.15361,0,0,0-1.08344-4.18932,5.24392,5.24392,0,0,1-1.05094-2.48109L806.2588,497.445A.57422.57422,0,0,0,805.64846,496.95017Z" transform="translate(-158 -223.44434)" fill="#fff"/><path d="M804.4237,541.61806a31.98293,31.98293,0,0,1-3.96655-.2467,2.13306,2.13306,0,0,1-1.58153-.64735,3.9453,3.9453,0,0,1-.83991-2.58059l-.00027-21.36226a5.81957,5.81957,0,0,1,1.30828-4.41032,4.7499,4.7499,0,0,0,1.003-2.31449l1.679-12.59417a.94046.94046,0,0,1,1.02922-.80959,16.66547,16.66547,0,0,0,2.5574-.06172l.01-.00088a.93516.93516,0,0,1,.99422.80588l1.74446,12.86116a4.88768,4.88768,0,0,0,.97817,2.30779,5.50072,5.50072,0,0,1,1.15945,4.44311v21.03726c0,2.89836-2.02864,3.31612-2.04918,3.32A32.22156,32.22156,0,0,1,804.4237,541.61806Zm-1.45712-44.24741a.21658.21658,0,0,0-.22466.18481l-1.67965,12.59912a5.47866,5.47866,0,0,1-1.16034,2.67458,5.09846,5.09846,0,0,0-1.14692,3.88552l.00273.04444v21.398a3.27552,3.27552,0,0,0,.63986,2.06761,1.42424,1.42424,0,0,0,1.08282.42446l.04506.00282a31.36543,31.36543,0,0,0,7.81178,0c.0343-.00847,1.43913-.32888,1.43913-2.60687l.00582-21.13407a4.78474,4.78474,0,0,0-1.00753-3.89575,5.61975,5.61975,0,0,1-1.129-2.65924l-1.74473-12.86274a.2143.2143,0,0,0-.22264-.18322,17.53452,17.53452,0,0,1-2.682.06207Z" transform="translate(-158 -223.44434)" fill="#3f3d56"/><rect x="641.00693" y="293.69765" width="10.64304" height="17.99604" rx="3.99069" fill="#6c63ff"/><path d="M791.33948,474.5794a17.09664,17.09664,0,0,1-2.63276.0614.57421.57421,0,0,0-.632.49838l-1.67935,12.59687a5.11378,5.11378,0,0,1-1.08345,2.49554,5.43891,5.43891,0,0,0-1.2243,4.15682v21.39805s-.10834,2.85307,2.08384,2.85307a31.6908,31.6908,0,0,0,7.90193,0s1.75518-.33225,1.75518-2.965V494.6051a5.15359,5.15359,0,0,0-1.08345-4.18933,5.2439,5.2439,0,0,1-1.05093-2.48109l-1.74435-12.8605A.57424.57424,0,0,0,791.33948,474.5794Z" transform="translate(-158 -223.44434)" fill="#fff"/><path d="M790.11473,519.24729a31.983,31.983,0,0,1-3.96656-.2467,2.133,2.133,0,0,1-1.58152-.64735,3.94539,3.94539,0,0,1-.83992-2.58059l-.00026-21.36226a5.81949,5.81949,0,0,1,1.30828-4.41031,4.74994,4.74994,0,0,0,1.00295-2.31449l1.679-12.59418a.94046.94046,0,0,1,1.02922-.80959,16.6642,16.6642,0,0,0,2.5574-.06172l.01-.00088a.93518.93518,0,0,1,.99422.80588l1.74446,12.86116a4.88768,4.88768,0,0,0,.97817,2.30779,5.50075,5.50075,0,0,1,1.15945,4.44312v21.03726c0,2.89836-2.02864,3.31611-2.04918,3.32A32.22168,32.22168,0,0,1,790.11473,519.24729Zm-1.45712-44.2474a.21658.21658,0,0,0-.22466.1848l-1.67966,12.59912a5.47856,5.47856,0,0,1-1.16033,2.67458,5.09851,5.09851,0,0,0-1.14693,3.88552l.00274.04444v21.398a3.27558,3.27558,0,0,0,.63985,2.06762,1.42429,1.42429,0,0,0,1.08283.42445l.04506.00282a31.36543,31.36543,0,0,0,7.81178,0c.03429-.00846,1.43912-.32888,1.43912-2.60686l.00582-21.13407a4.78469,4.78469,0,0,0-1.00753-3.89575,5.62,5.62,0,0,1-1.129-2.65924l-1.74473-12.86275a.21429.21429,0,0,0-.22263-.18322,17.53468,17.53468,0,0,1-2.682.06207Z" transform="translate(-158 -223.44434)" fill="#3f3d56"/><rect x="626.69796" y="271.32689" width="10.64304" height="17.99604" rx="3.99069" fill="#6c63ff"/><path d="M742.9224,523.40705H730.50256a4.34694,4.34694,0,0,1,0-8.69388H742.9224a4.34694,4.34694,0,0,1,0,8.69388Z" transform="translate(-158 -223.44434)" fill="#e4e4e4"/><path d="M747.26934,520.92308H726.15562a2.484,2.484,0,0,1,0-4.96793h21.11372a2.484,2.484,0,1,1,0,4.96793Z" transform="translate(-158 -223.44434)" fill="#cacaca"/><path d="M744.76263,531.51148H728.31029a6.78907,6.78907,0,0,1,0-13.57813h16.45234a6.78906,6.78906,0,0,1,0,13.57813Z" transform="translate(-158 -223.44434)" fill="#e4e4e4"/><path d="M722.11668,521.25754a5.8572,5.8572,0,0,0-.92087.05073l-18.26129-20.688,2.12423-6.3583-9.17679-4.46-4.85443,10.89067a4.45135,4.45135,0,0,0,1.1881,5.20842l23.952,20.29512a5.8408,5.8408,0,1,0,5.94906-4.93864Z" transform="translate(-158 -223.44434)" fill="#9f616a"/><path d="M694.22873,492.86692l7.139-20.33488c.8023-2.39712,1.80769-3.85338,2.98832-4.32856a1.84389,1.84389,0,0,1,1.48152-.01386l3.20118,4.04437,2.97106,12.48115-7.61763,17.91847Z" transform="translate(-158 -223.44434)" fill="#3f3d56"/><path d="M283.73622,437.05566h-10a3.5,3.5,0,0,1,0-7h10a3.5,3.5,0,0,1,0,7Z" transform="translate(-158 -223.44434)" fill="#e4e4e4"/><path d="M287.23622,435.05566h-17a2,2,0,0,1,0-4h17a2,2,0,0,1,0,4Z" transform="translate(-158 -223.44434)" fill="#cacaca"/><path d="M285.21791,443.58105H271.97108a5.46631,5.46631,0,0,1,0-10.93261h13.24683a5.4663,5.4663,0,1,1,0,10.93261Z" transform="translate(-158 -223.44434)" fill="#e4e4e4"/><path d="M324.73622,446.05566h-10a3.5,3.5,0,0,1,0-7h10a3.5,3.5,0,0,1,0,7Z" transform="translate(-158 -223.44434)" fill="#e4e4e4"/><path d="M328.23622,444.05566h-17a2,2,0,0,1,0-4h17a2,2,0,0,1,0,4Z" transform="translate(-158 -223.44434)" fill="#cacaca"/><path d="M326.21791,452.58105H312.97108a5.46631,5.46631,0,0,1,0-10.93261h13.24683a5.4663,5.4663,0,1,1,0,10.93261Z" transform="translate(-158 -223.44434)" fill="#e4e4e4"/><path d="M253.724,463.36724c-2.58143,16.7764,128.169,16.77651,125.57744-.00274C381.88293,446.59084,251.13247,446.59073,253.724,463.36724Z" transform="translate(-158 -223.44434)" fill="#f0f0f0"/><rect x="154.81927" y="246.33406" width="7.38691" height="97.73457" fill="#f0f0f0"/><path d="M273.33561,457.18377a6.26459,6.26459,0,0,0-9.68061-1.87038l-27.1177-6.42181-1.99978-6.63673-10.8179,1.77588c1.46471,4.5143.876,16.08115,7.84,16.19985l30.67935,2.70267C265.88609,470.1276,277.08183,464.28836,273.33561,457.18377Z" transform="translate(-158 -223.44434)" fill="#9f616a"/><path d="M214.53475,504.39173h27.28031c0,.78415,28.11573,1.42056,28.11573,1.42056,5.39937,3.953,2.8606,14.12252-4.25605,13.92133l-51.14.00016C205.12945,519.86789,205.11022,504.25968,214.53475,504.39173Z" transform="translate(-158 -223.44434)" fill="#f0f0f0"/><rect x="78.82254" y="296.00728" width="7.38691" height="47.73083" fill="#f0f0f0"/><path d="M265.23375,566.923c0,.79813-11.19371.30873-25.00187.30873S215.23,567.72112,215.23,566.923C224.72435,557.857,255.87452,557.939,265.23375,566.923Z" transform="translate(-158 -223.44434)" fill="#f0f0f0"/><polygon points="99.997 337.316 106.963 337.315 110.277 319.248 99.996 319.248 99.997 337.316" fill="#9f616a"/><path d="M256.22037,567.513l22.46219-.00083c.33165-11.78885-15.07589-8.69494-22.46261-9.02639Z" transform="translate(-158 -223.44434)" fill="#2f2e41"/><path d="M268.41631,549.55612l13.88792-31.14305a11.41336,11.41336,0,0,0-5.01094-14.6512l-30.12352-16.15332c-6.57379-.53232-19.87732-1.71547-26.42575-2.32173-11.90443,21.512,37.78709,26.37894,44.82327,30.06825a1.996,1.996,0,0,1,1.36836,2.58915L254.03327,546.932a2.56618,2.56618,0,0,0,2.16458,3.426C258.2374,549.88387,267.53115,552.70209,268.41631,549.55612Z" transform="translate(-158 -223.44434)" fill="#2f2e41"/><polygon points="95.451 337.316 102.417 337.315 105.732 319.248 95.45 319.248 95.451 337.316" fill="#9f616a"/><path d="M251.67457,567.513l22.4622-.00083c.33165-11.78885-15.0759-8.69494-22.46261-9.02639Z" transform="translate(-158 -223.44434)" fill="#2f2e41"/><path d="M263.30229,551.26079l13.88792-31.14305a11.41334,11.41334,0,0,0-5.01094-14.65119l-30.12351-16.15333c-5.73643-.46016-18.01413-1.55144-23.67742-2.03067l.00136-.13624c-2.98357,3.66029-1.86989,16.91191,6.966,19.16236,13.47455,4.94111,29.04093,9.164,35.108,10.74991a1.99765,1.99765,0,0,1,1.368,2.59031l-12.90239,28.98775a2.56618,2.56618,0,0,0,2.16458,3.426C253.13744,551.60474,262.407,554.3951,263.30229,551.26079Z" transform="translate(-158 -223.44434)" fill="#2f2e41"/><path d="M237.12974,487.85077c.66585-.471,10.228,4.54579,11.93271.56822-7.95514-19.88784-2.47321-28.47579-7.34612-39.88051-3.20734-9.0816-14.35629-8.456-22.05685-8.69459a14.77605,14.77605,0,0,0-8.1448,15.70721c.045,12.41182,7.47126,21.87828,4.87457,30.8808a2.85648,2.85648,0,0,0,2.04542,3.57552c1.404-.33976,18.29032-2.095,18.97586-2.66852Z" transform="translate(-158 -223.44434)" fill="#6c63ff"/><path d="M223.87917,407.20864c-18.25166.08194-18.25011,27.83294.00085,27.9123C242.13083,435.03905,242.12927,407.28805,223.87917,407.20864Z" transform="translate(-158 -223.44434)" fill="#9f616a"/><path d="M219.4338,433.97481c.7415.32447,2.26-5.58412,1.5798-6.76588-1.01158-1.75748-.95178-1.74485-1.62331-2.9076-2.00762-2.43639,1.46373-6.47558,3.32672-3.382.1122-9.2973,18.18505-1.26113,16.42006-11.6107C218.48552,389.11655,189.65427,420.9084,219.4338,433.97481Z" transform="translate(-158 -223.44434)" fill="#2f2e41"/><path d="M425.58119,500.27855H404.25547c0,.91377-23.31185,1.65537-23.31185,1.65537-6.29366,4.60643-3.33213,16.45685,4.95953,16.2224l39.678.0002C436.54578,518.31278,436.56016,500.1247,425.58119,500.27855Z" transform="translate(-158 -223.44434)" fill="#f0f0f0"/><rect x="243.46531" y="294.38337" width="8.60791" height="49.68526" fill="#f0f0f0"/><path d="M376.34806,566.59276c-1.69552.78437,59.95771.78159,58.26886.0011C423.5533,556.02828,387.25429,556.1239,376.34806,566.59276Z" transform="translate(-158 -223.44434)" fill="#f0f0f0"/><path d="M250.23969,468.4582l24.24858-19.12984c7.564,2.72747,11.752-9.19133,4.13128-11.795a6.26459,6.26459,0,0,0-8.32693,5.27869l-24.139,13.92568-6.00714-3.45846-6.65444,8.712C237.59344,464.22638,245.15923,473.10058,250.23969,468.4582Z" transform="translate(-158 -223.44434)" fill="#9f616a"/><path d="M230.53316,464.70444l13.83551-9.4083c-3.27274-3.75815-7.68152-14.94715-14.41671-11.27747C222.25855,447.12589,229.78489,459.59565,230.53316,464.70444Z" transform="translate(-158 -223.44434)" fill="#6c63ff"/><path d="M335.73622,389.05566h-10a3.5,3.5,0,0,1,0-7h10a3.5,3.5,0,0,1,0,7Z" transform="translate(-158 -223.44434)" fill="#e4e4e4"/><path d="M339.23622,387.05566h-17a2,2,0,0,1,0-4h17a2,2,0,0,1,0,4Z" transform="translate(-158 -223.44434)" fill="#cacaca"/><path d="M337.21791,395.58105H323.97108a5.4663,5.4663,0,0,1,0-10.93261h13.24683a5.4663,5.4663,0,1,1,0,10.93261Z" transform="translate(-158 -223.44434)" fill="#e4e4e4"/><path d="M407.34638,462.942a5.81406,5.81406,0,0,1-2.07909-8.66936l-4.34753-42.50677h9.39546l3.45509,41.50568a5.84557,5.84557,0,0,1-6.42393,9.67045Z" transform="translate(-158 -223.44434)" fill="#ffb6b6"/><circle cx="240.71966" cy="151.57033" r="13.29271" fill="#ffb6b6"/><path d="M395.69485,436.464l-19.83891-4.33233a2.44144,2.44144,0,0,1-1.91261-2.25417c-.22911-4.42694-.39375-15.87906,3.01631-26.5701A16.10013,16.10013,0,0,1,397.64842,393.051h0a16.10741,16.10741,0,0,1,9.147,22.23855c-4.39946,9.03411-7.17026,15.57621-8.23524,19.44556a2.43133,2.43133,0,0,1-2.86528,1.72881Z" transform="translate(-158 -223.44434)" fill="#6c63ff"/><polygon points="219.006 339.302 212.37 339.302 209.214 313.709 219.007 313.71 219.006 339.302" fill="#ffb6b6"/><path d="M207.6309,337.406h12.79633a0,0,0,0,1,0,0V345.463a0,0,0,0,1,0,0H199.574a0,0,0,0,1,0,0v0A8.05694,8.05694,0,0,1,207.6309,337.406Z" fill="#2f2e41"/><polygon points="285.353 330.703 279.539 333.9 264.442 312.994 273.024 308.276 285.353 330.703" fill="#ffb6b6"/><path d="M434.12015,556.32594h12.79634a0,0,0,0,1,0,0v8.05695a0,0,0,0,1,0,0H426.06322a0,0,0,0,1,0,0v0A8.05693,8.05693,0,0,1,434.12015,556.32594Z" transform="translate(-373.96661 56.15927) rotate(-28.80096)" fill="#2f2e41"/><path d="M377.12639,548.53436l-10.21458-.78645a2.42876,2.42876,0,0,1-2.23738-2.1918c-1.4557-15.184-7.84255-92.12908,9.43156-115.81924l.04836-.06607.07716-.02854c.1546-.05655,15.5601-5.55006,24.39878,4.51732a2.43419,2.43419,0,0,1,.46867,2.36886l-.3372,1.0116a1.886,1.886,0,0,0,.26836,1.71718c2.45289,3.316,10.70861,16.0873,13.95337,41.20131a1.87555,1.87555,0,0,0,.12236.46616l23.95626,58.84987a2.43523,2.43523,0,0,1-1.3887,3.19388l-7.538,2.872a2.44875,2.44875,0,0,1-2.99979-1.10092l-34.58269-62.743a1.353,1.353,0,0,0-2.52662.47937l-8.298,63.94329a2.43516,2.43516,0,0,1-2.41285,2.122C377.25284,548.54123,377.18981,548.53912,377.12639,548.53436Z" transform="translate(-158 -223.44434)" fill="#2f2e41"/><path d="M347.04261,390.45554a5.697,5.697,0,0,1,.12951.88766l23.24907,13.41229,5.651-3.25319,6.02431,7.88669-9.44432,6.73134a4.3297,4.3297,0,0,1-5.19465-.12656l-23.97379-18.91308a5.68115,5.68115,0,1,1,3.55886-6.62515Z" transform="translate(-158 -223.44434)" fill="#ffb6b6"/><path d="M370.74063,403.41484a2.43282,2.43282,0,0,1,1.19676-1.63719l10.66888-5.96566a6.76375,6.76375,0,0,1,8.295,10.68576l-8.5064,8.83322a2.43547,2.43547,0,0,1-3.68236-.20169l-7.514-9.73854A2.4327,2.4327,0,0,1,370.74063,403.41484Z" transform="translate(-158 -223.44434)" fill="#6c63ff"/><path d="M398.357,421.80673a2.43286,2.43286,0,0,1-.90222-1.8162L397.072,407.773a6.76374,6.76374,0,0,1,13.30506-2.44274l3.92408,11.61835a2.43547,2.43547,0,0,1-1.87466,3.17587l-12.10465,2.1857A2.43267,2.43267,0,0,1,398.357,421.80673Z" transform="translate(-158 -223.44434)" fill="#6c63ff"/><path d="M396.61575,371.95718c-3.41651,2.33831-7.90247,4.742-11.39191,2.25185a6.34993,6.34993,0,0,1-2.084-7.31982c1.67086-4.77812,6.26151-6.88167,10.65132-8.49409,5.70676-2.09613,11.92058-3.76371,17.81188-2.26256s11.09786,7.20511,10.03437,13.19091c-.85524,4.81366-5.39587,8.819-4.75127,13.66536.64873,4.87748,6.134,7.44485,10.97657,8.31657s10.26158,1.15181,13.74176,4.63017c4.43961,4.43728,3.331,12.36844-.84653,17.05333s-10.48155,6.8085-16.59019,8.25216c-8.09357,1.91276-16.8474,2.918-24.53424-.25642s-13.66865-11.71957-11.44189-19.73244c.94057-3.38462,3.1563-6.24509,5.29767-9.02984s4.30972-5.6968,5.12655-9.1134a9.47405,9.47405,0,0,0-1.71121-8.28856,2.40139,2.40139,0,0,1-.32169-2.807Z" transform="translate(-158 -223.44434)" fill="#2f2e41"/><path d="M540,569.55566H159a1,1,0,0,1,0-2H540a1,1,0,0,1,0,2Z" transform="translate(-158 -223.44434)" fill="#cacaca"/><path d="M956,676.55566H575a1,1,0,0,1,0-2H956a1,1,0,0,1,0,2Z" transform="translate(-158 -223.44434)" fill="#cacaca"/><path d="M801.97987,287.05566H381.49269a6.50007,6.50007,0,0,1-6.06177-8.84668l20.96265-54.15332H787.07875L808.0414,278.209a6.49968,6.49968,0,0,1-6.06153,8.84668Z" transform="translate(-158 -223.44434)" fill="#cacaca"/></svg>