<?xml version="1.0" ?><svg height="256px" id="Layer_1" style="enable-background:new 0 0 256 256;" version="1.1" viewBox="0 0 256 256" width="256px" xml:space="preserve" xmlns="http://www.w3.org/2000/svg" xmlns:xlink="http://www.w3.org/1999/xlink"><style type="text/css">
	.st0{fill:none;stroke:#000000;stroke-width:4;stroke-linecap:round;stroke-linejoin:round;stroke-miterlimit:10;}
</style><path class="st0" d="M128.1,222.073"/><path class="st0" d="M130.164,226.986c63.917-3.557,108.667-52.057,97.259-116.5c-9.288-52.47-60.722-87.613-112.739-80.577  C61.952,37.041,21.39,85.877,27.386,139.004c5.689,47.857,35.128,70.23,59.685,80.335c5.717,2.353,13.401,5.785,15.997,5.229  c2.596-0.556,1.763-14.95,1.763-21.889c-16,2.459-21.475-3.841-24.875-7.563c-3.857-4.222-6.125-8.563-10.063-14.938  s-11.063-4.875-11.813-8.563s15-2.688,26.313,11.25c8.188,10.146,16.928,7.089,21.625,4.188c0.154-1.612,0.526-3.775,1.438-6.188  c0.967-2.557,3.625-4.104,3.208-5.854c-0.417-1.75-21.804-0.577-34-17.667c-8.809-12.344-9.129-26.955-5.667-37.833  c2.322-7.297,6.196-12.443,8.833-15.417c-1.011-2.162-2.513-6.109-2.583-11.25c-0.076-5.549,1.554-9.796,2.583-12  c3.492,0.104,8.54,0.644,14.25,2.667c5.469,1.937,9.593,4.542,12.333,6.583c4.975-1.671,12.218-3.489,21.083-3.667  c10.135-0.203,18.344,1.819,23.667,3.583c2.616-2.336,6.987-5.648,13.167-7.917c4.489-1.648,8.518-2.229,11.5-2.417  c1.143,2.165,3.075,6.519,3.167,12.332c0.085,5.351-1.426,9.47-2.416,11.664c2.867,3.459,7.394,9.875,9.502,18.995  c0.751,3.249,4.857,20.981-6.996,36.24c-12.408,15.974-33.06,13.524-33.992,15.73c-0.932,2.206,3.964,6.297,6.266,14.877  c2.302,8.58,1.327,24.979,1.327,24.979"/></svg>