<svg fill="none" height="24" viewBox="0 0 24 24" width="24" xmlns="http://www.w3.org/2000/svg" xmlns:xlink="http://www.w3.org/1999/xlink"><clipPath id="a"><path d="m0 0h24v24h-24z"/></clipPath><g clip-path="url(#a)"><path d="m6 6h14.5v14.5h-14.5z" fill="#fff"/><g fill="#000"><path d="m8.84962 22.7c.00021 0 .00043 0 .00043-.5v.5h9.29995c2.5023 0 4.7-2.0006 4.7-4.55v-9.60001c0-.55655-.2688-1.15269-.6039-1.69664-.345-.55997-.8068-1.13768-1.2856-1.67387-.9582-1.0732-2.0273-2.02773-2.4904-2.4136-.9366-.78053-2.0987-1.46589-3.4701-1.46589h-8.39995c-1.53911 0-2.86384.85142-3.78379 1.87136-.90945 1.00831-1.51621 2.28515-1.51621 3.27864v8.25001c0 .6843.26946 1.409.64218 2.0931.37735.6926.88671 1.3907 1.42418 2.0338 1.07249 1.2832 2.30012 2.398 2.93364 2.8731.65701.4927 1.27855.7431 1.74344.8699.23216.0633.42516.0958.56417.1125.06955.0083.12571.0127.16667.015.02049.0012.03719.0018.04988.0022l.016.0003.0057.0001h.00227.00098zm.00043-15.75001h9.29995c.2666 0 .7123.20304 1.1247.58107.1951.17888.3581.37552.4694.56463.1139.19365.1559.34895.1559.4543v9.60001c0 .0963-.0446.2576-.1744.4734-.1251.2078-.3059.4271-.5156.6284-.2094.2011-.4348.3718-.6401.4891-.2185.1248-.3616.1591-.4199.1591h-9.29995c-.05824 0-.2014-.0343-.4199-.1591-.20526-.1173-.43064-.288-.64009-.4891-.20967-.2013-.39046-.4206-.51552-.6284-.12987-.2158-.17449-.3771-.17449-.4734v-9.60001c0-.30156.23482-.69926.66534-1.0609.20263-.17021.42368-.31013.62813-.40554.21275-.09928.37128-.13356.45653-.13356z" stroke="#fff"/><path d="m11.55 15.9v-6.60002c0-.45 1.65 0 1.65 0s.75.14997.75.45v1.50002h1.8c.45 0 .75 1.8 0 1.8h-1.8v2.85h1.8c.6 0 .3 1.2 0 1.65s-1.8.3-1.8.3-2.4 0-2.4-1.95z"/></g></g></svg>