<?xml version="1.0" standalone="no"?>
<!DOCTYPE svg PUBLIC "-//W3C//DTD SVG 1.1//EN" "http://www.w3.org/Graphics/SVG/1.1/DTD/svg11.dtd">
<svg class="icon" style="width: 1em;height: 1em;vertical-align: middle;fill: currentColor;overflow: hidden;" viewBox="0 0 1024 1024" version="1.1" xmlns="http://www.w3.org/2000/svg"><path d="M512 74.666667C270.933333 74.666667 74.666667 270.933333 74.666667 512S270.933333 949.333333 512 949.333333 949.333333 753.066667 949.333333 512 753.066667 74.666667 512 74.666667z m0 810.666666c-204.8 0-373.333333-168.533333-373.333333-373.333333S307.2 138.666667 512 138.666667 885.333333 307.2 885.333333 512 716.8 885.333333 512 885.333333zM682.666667 480H405.333333l119.466667-128c12.8-12.8 10.666667-34.133333-2.133333-44.8s-34.133333-10.666667-44.8 2.133333l-170.666667 181.333334c-10.666667 12.8-10.666667 32 0 44.8l170.666667 181.333333c6.4 6.4 14.933333 10.666667 23.466666 10.666667 8.533333 0 14.933333-2.133333 21.333334-8.533334 12.8-12.8 12.8-32 2.133333-44.8l-119.466667-128h277.333334c17.066667 0 32-14.933333 32-32s-14.933333-34.133333-32-34.133333z" /></svg>