<?xml version="1.0" standalone="no"?>
<!DOCTYPE svg PUBLIC "-//W3C//DTD SVG 1.1//EN" "http://www.w3.org/Graphics/SVG/1.1/DTD/svg11.dtd">
<svg class="icon" style="width: 1em;height: 1em;vertical-align: middle;fill: currentColor;overflow: hidden;" viewBox="0 0 1024 1024" version="1.1" xmlns="http://www.w3.org/2000/svg"><path d="M512 74.666667C270.933333 74.666667 74.666667 270.933333 74.666667 512S270.933333 949.333333 512 949.333333 949.333333 753.066667 949.333333 512 753.066667 74.666667 512 74.666667z m0 810.666666c-204.8 0-373.333333-168.533333-373.333333-373.333333S307.2 138.666667 512 138.666667 885.333333 307.2 885.333333 512 716.8 885.333333 512 885.333333zM533.333333 307.2c-12.8-10.666667-32-10.666667-44.8 0l-181.333333 170.666667c-12.8 12.8-12.8 32-2.133333 44.8s32 12.8 44.8 2.133333l128-119.466667v277.333334c0 17.066667 14.933333 32 32 32s32-14.933333 32-32V405.333333l128 119.466667c6.4 6.4 14.933333 8.533333 21.333333 8.533333 8.533333 0 17.066667-4.266667 23.466667-10.666666 12.8-12.8 10.666667-34.133333-2.133334-44.8l-179.2-170.666667z" /></svg>