<?xml version="1.0" standalone="no"?>
<!DOCTYPE svg PUBLIC "-//W3C//DTD SVG 1.1//EN" "http://www.w3.org/Graphics/SVG/1.1/DTD/svg11.dtd">
<svg class="icon" style="width: 1em;height: 1em;vertical-align: middle;fill: currentColor;overflow: hidden;" viewBox="0 0 1024 1024" version="1.1" xmlns="http://www.w3.org/2000/svg"><path d="M874.666667 467.2c-10.666667-10.666667-29.866667-12.8-42.666667 0l-343.466667 341.333333c-74.666667 74.666667-198.4 74.666667-275.2 0-36.266667-36.266667-57.6-85.333333-57.6-136.533333s19.2-100.266667 57.6-136.533333L556.8 192c46.933333-46.933333 121.6-46.933333 168.533333 0 23.466667 23.466667 34.133333 53.333333 34.133334 83.2 0 32-12.8 61.866667-34.133334 83.2L384 704c-17.066667 17.066667-44.8 17.066667-64 0-8.533333-8.533333-12.8-19.2-12.8-32s4.266667-23.466667 12.8-32l317.866667-315.733333c10.666667-10.666667 12.8-29.866667 0-42.666667-10.666667-12.8-29.866667-12.8-42.666667 0L277.333333 597.333333c-19.2 19.2-29.866667 46.933333-29.866666 74.666667S258.133333 725.333333 277.333333 746.666667c40.533333 40.533333 106.666667 40.533333 147.2 0L768 403.2c34.133333-34.133333 53.333333-78.933333 53.333333-125.866667s-19.2-93.866667-53.333333-125.866666a178.986667 178.986667 0 0 0-253.866667 0l-341.333333 341.333333c-46.933333 46.933333-74.666667 110.933333-74.666667 179.2s25.6 132.266667 74.666667 179.2c49.066667 49.066667 115.2 74.666667 179.2 74.666667s130.133333-25.6 179.2-74.666667l343.466667-341.333333c10.666667-12.8 10.666667-32 0-42.666667z" /></svg>