<?xml version="1.0" standalone="no"?>
<!DOCTYPE svg PUBLIC "-//W3C//DTD SVG 1.1//EN" "http://www.w3.org/Graphics/SVG/1.1/DTD/svg11.dtd">
<svg class="icon" style="width: 1em;height: 1em;vertical-align: middle;fill: currentColor;overflow: hidden;" viewBox="0 0 1024 1024" version="1.1" xmlns="http://www.w3.org/2000/svg"><path d="M904.533333 522.666667L853.333333 185.6c-8.533333-51.2-55.466667-89.6-106.666666-89.6H204.8c-59.733333 0-108.8 46.933333-108.8 106.666667v258.133333c0 57.6 49.066667 106.666667 108.8 106.666667h91.733333l125.866667 281.6c2.133333 2.133333 2.133333 4.266667 4.266667 6.4 14.933333 23.466667 38.4 36.266667 64 36.266666 12.8 0 25.6-4.266667 38.4-10.666666 57.6-34.133333 87.466667-72.533333 87.466666-117.333334v-117.333333h183.466667c32 0 59.733333-12.8 81.066667-36.266667 19.2-25.6 29.866667-55.466667 23.466666-87.466666z m-616.533333-21.333334H204.8c-25.6 0-44.8-19.2-44.8-42.666666v-256c0-23.466667 19.2-42.666667 44.8-42.666667h83.2v341.333333zM832 567.466667c-8.533333 8.533333-21.333333 14.933333-34.133333 14.933333h-213.333334c-17.066667 0-32 14.933333-32 32v149.333333c0 25.6-29.866667 49.066667-55.466666 64-4.266667 2.133333-10.666667 2.133333-14.933334-4.266666L352 533.333333V160H746.666667c21.333333 0 40.533333 14.933333 42.666666 36.266667L842.666667 533.333333c2.133333 10.666667-2.133333 23.466667-10.666667 34.133334z" /></svg>