<?xml version="1.0" standalone="no"?>
<!DOCTYPE svg PUBLIC "-//W3C//DTD SVG 1.1//EN" "http://www.w3.org/Graphics/SVG/1.1/DTD/svg11.dtd">
<svg class="icon" style="width: 1em;height: 1em;vertical-align: middle;fill: currentColor;overflow: hidden;" viewBox="0 0 1024 1024" version="1.1" xmlns="http://www.w3.org/2000/svg"><path d="M512 836.266667C230.4 836.266667 74.666667 533.333333 68.266667 520.533333c-4.266667-8.533333-4.266667-19.2 0-29.866666 6.4-12.8 164.266667-315.733333 443.733333-315.733334 281.6 0 437.333333 305.066667 443.733333 317.866667 4.266667 8.533333 4.266667 19.2 0 29.866667-6.4 10.666667-162.133333 313.6-443.733333 313.6zM132.266667 505.6c34.133333 57.6 170.666667 266.666667 379.733333 266.666667s345.6-209.066667 379.733333-266.666667c-34.133333-57.6-170.666667-266.666667-379.733333-266.666667S166.4 448 132.266667 505.6zM512 650.666667c-76.8 0-138.666667-61.866667-138.666667-138.666667s61.866667-138.666667 138.666667-138.666667 138.666667 61.866667 138.666667 138.666667-61.866667 138.666667-138.666667 138.666667z m0-213.333334c-40.533333 0-74.666667 34.133333-74.666667 74.666667s34.133333 74.666667 74.666667 74.666667 74.666667-34.133333 74.666667-74.666667-34.133333-74.666667-74.666667-74.666667z" /></svg>