<?xml version="1.0" standalone="no"?>
<!DOCTYPE svg PUBLIC "-//W3C//DTD SVG 1.1//EN" "http://www.w3.org/Graphics/SVG/1.1/DTD/svg11.dtd">
<svg class="icon" style="width: 1em;height: 1em;vertical-align: middle;fill: currentColor;overflow: hidden;" viewBox="0 0 1024 1024" version="1.1" xmlns="http://www.w3.org/2000/svg"><path d="M853.333333 149.333333h-138.666666V106.666667c0-17.066667-14.933333-32-32-32s-32 14.933333-32 32v42.666666h-277.333334V106.666667c0-17.066667-14.933333-32-32-32s-32 14.933333-32 32v42.666666H170.666667c-40.533333 0-74.666667 34.133333-74.666667 74.666667v618.666667C96 883.2 130.133333 917.333333 170.666667 917.333333h682.666666c40.533333 0 74.666667-34.133333 74.666667-74.666666v-618.666667C928 183.466667 893.866667 149.333333 853.333333 149.333333zM170.666667 213.333333h138.666666v64c0 17.066667 14.933333 32 32 32s32-14.933333 32-32v-64h277.333334v64c0 17.066667 14.933333 32 32 32s32-14.933333 32-32v-64H853.333333c6.4 0 10.666667 4.266667 10.666667 10.666667v194.133333c-4.266667-2.133333-6.4-2.133333-10.666667-2.133333H170.666667c-4.266667 0-6.4 0-10.666667 2.133333v-194.133333c0-6.4 4.266667-10.666667 10.666667-10.666667z m682.666666 640H170.666667c-6.4 0-10.666667-4.266667-10.666667-10.666666V477.866667c4.266667 2.133333 6.4 2.133333 10.666667 2.133333h682.666666c4.266667 0 6.4 0 10.666667-2.133333v364.8c0 6.4-4.266667 10.666667-10.666667 10.666666zM384 608h-85.333333c-17.066667 0-32 14.933333-32 32s14.933333 32 32 32h85.333333c17.066667 0 32-14.933333 32-32s-14.933333-32-32-32zM725.333333 608h-192c-17.066667 0-32 14.933333-32 32s14.933333 32 32 32h192c17.066667 0 32-14.933333 32-32s-14.933333-32-32-32z" /></svg>