<?xml version="1.0" standalone="no"?>
<!DOCTYPE svg PUBLIC "-//W3C//DTD SVG 1.1//EN" "http://www.w3.org/Graphics/SVG/1.1/DTD/svg11.dtd">
<svg class="icon" style="width: 1em;height: 1em;vertical-align: middle;fill: currentColor;overflow: hidden;" viewBox="0 0 1024 1024" version="1.1" xmlns="http://www.w3.org/2000/svg"><path d="M846.933333 238.933333h-140.8L646.4 149.333333c-6.4-10.666667-17.066667-17.066667-29.866667-17.066666h-209.066666c-12.8 0-23.466667 6.4-29.866667 17.066666l-59.733333 89.6H177.066667c-57.6 0-106.666667 46.933333-106.666667 106.666667v426.666667c0 57.6 46.933333 106.666667 106.666667 106.666666h672c57.6 0 106.666667-46.933333 106.666666-106.666666v-426.666667c-2.133333-59.733333-49.066667-106.666667-108.8-106.666667z m34.133334 533.333334c0 19.2-14.933333 34.133333-34.133334 34.133333H177.066667c-19.2 0-34.133333-14.933333-34.133334-34.133333v-426.666667c0-19.2 14.933333-34.133333 34.133334-34.133333h160c12.8 0 23.466667-6.4 29.866666-17.066667L426.666667 206.933333h170.666666l59.733334 89.6c6.4 10.666667 17.066667 17.066667 29.866666 17.066667h160c19.2 0 34.133333 14.933333 34.133334 34.133333v424.533334zM512 364.8c-96 0-174.933333 78.933333-174.933333 174.933333 0 96 78.933333 174.933333 174.933333 174.933334 96 0 174.933333-78.933333 174.933333-174.933334 0-96-78.933333-174.933333-174.933333-174.933333z m0 279.466667c-57.6 0-104.533333-46.933333-104.533333-104.533334s46.933333-104.533333 104.533333-104.533333 104.533333 46.933333 104.533333 104.533333-46.933333 104.533333-104.533333 104.533334z" /></svg>