<?xml version="1.0" standalone="no"?>
<!DOCTYPE svg PUBLIC "-//W3C//DTD SVG 1.1//EN" "http://www.w3.org/Graphics/SVG/1.1/DTD/svg11.dtd">
<svg class="icon" style="width: 1em;height: 1em;vertical-align: middle;fill: currentColor;overflow: hidden;" viewBox="0 0 1024 1024" version="1.1" xmlns="http://www.w3.org/2000/svg"><path d="M441.5 53.776a31.03 31.03 0 0 1 43.876 0l416.923 416.892a31.03 31.03 0 0 1 0 43.908L529.315 887.56a93.09 93.09 0 0 1-131.693 0L68.484 558.42a93.09 93.09 0 0 1 0-131.63l21.814 21.783-21.814-21.783L441.499 53.776z m21.938 65.815L112.392 470.668l-21.97-21.939 21.97 21.939a31.03 31.03 0 0 0 0 43.876l329.138 329.17a31.03 31.03 0 0 0 43.877 0l351.077-351.046-373.046-373.077zM496.485 417.047a46.545 46.545 0 1 0 0 93.091 46.545 46.545 0 0 0 0-93.09z m-108.606 46.546a108.606 108.606 0 1 1 217.212 0 108.606 108.606 0 0 1-217.212 0z m533.938 164.243l-21.938 21.939-21.939-21.939a31.03 31.03 0 0 1 43.877 0z m-21.938 69.57a338.55 338.55 0 0 1 12.97 18.06c18.37 27.555 33.575 60.012 33.575 89.46a46.545 46.545 0 1 1-93.09 0c0-29.479 15.204-61.905 33.574-89.46a326.384 326.384 0 0 1 12.97-18.06z m0-47.631l-21.939-21.939-0.062 0.062-0.093 0.093-0.248 0.249-0.838 0.837a347.167 347.167 0 0 0-12.505 13.84 401.457 401.457 0 0 0-28.92 38.167c-20.418 30.596-44.001 75.714-44.001 123.811a108.606 108.606 0 1 0 217.212 0c0-48.097-23.583-93.215-44.001-123.81a401.936 401.936 0 0 0-41.426-52.008l-0.837-0.837-0.249-0.249-0.093-0.093-0.03-0.03-21.97 21.907zM140.412 107.551a31.03 31.03 0 0 1 43.908 0l279.273 279.273a31.03 31.03 0 1 1-43.908 43.877L140.412 151.428a31.03 31.03 0 0 1 0-43.877z" /></svg>