<?xml version="1.0" standalone="no"?>
<!DOCTYPE svg PUBLIC "-//W3C//DTD SVG 1.1//EN" "http://www.w3.org/Graphics/SVG/1.1/DTD/svg11.dtd">
<svg class="icon" style="width: 1em;height: 1em;vertical-align: middle;fill: currentColor;overflow: hidden;" viewBox="0 0 1024 1024" version="1.1" xmlns="http://www.w3.org/2000/svg"><path d="M874.666667 117.333333H149.333333C108.8 117.333333 74.666667 151.466667 74.666667 192v640c0 40.533333 34.133333 74.666667 74.666666 74.666667h725.333334c40.533333 0 74.666667-34.133333 74.666666-74.666667V192c0-40.533333-34.133333-74.666667-74.666666-74.666667zM138.666667 832V192c0-6.4 4.266667-10.666667 10.666666-10.666667h330.666667v661.333334H149.333333c-6.4 0-10.666667-4.266667-10.666666-10.666667z m746.666666 0c0 6.4-4.266667 10.666667-10.666666 10.666667H544v-661.333334H874.666667c6.4 0 10.666667 4.266667 10.666666 10.666667v640z" /></svg>