<?xml version="1.0" standalone="no"?>
<!DOCTYPE svg PUBLIC "-//W3C//DTD SVG 1.1//EN" "http://www.w3.org/Graphics/SVG/1.1/DTD/svg11.dtd">
<svg class="icon" style="width: 1em;height: 1em;vertical-align: middle;fill: currentColor;overflow: hidden;" viewBox="0 0 1024 1024" version="1.1" xmlns="http://www.w3.org/2000/svg"><path d="M874.666667 501.333333c-17.066667 0-32 14.933333-32 32v298.666667c0 6.4-4.266667 10.666667-10.666667 10.666667H192c-6.4 0-10.666667-4.266667-10.666667-10.666667V192c0-6.4 4.266667-10.666667 10.666667-10.666667h469.333333c17.066667 0 32-14.933333 32-32s-14.933333-32-32-32H192C151.466667 117.333333 117.333333 151.466667 117.333333 192v640c0 40.533333 34.133333 74.666667 74.666667 74.666667h640c40.533333 0 74.666667-34.133333 74.666667-74.666667V533.333333c0-17.066667-14.933333-32-32-32zM940.8 168.533333c-12.8-12.8-32-12.8-44.8 0l-390.4 384-106.666667-106.666666c-12.8-12.8-32-12.8-44.8 0-12.8 12.8-12.8 32 0 44.8l130.133334 128c6.4 6.4 14.933333 8.533333 23.466666 8.533333s17.066667-2.133333 23.466667-8.533333l411.733333-405.333334c8.533333-10.666667 10.666667-32-2.133333-44.8z" /></svg>