<?xml version="1.0" standalone="no"?>
<!DOCTYPE svg PUBLIC "-//W3C//DTD SVG 1.1//EN" "http://www.w3.org/Graphics/SVG/1.1/DTD/svg11.dtd">
<svg class="icon" style="width: 1em;height: 1em;vertical-align: middle;fill: currentColor;overflow: hidden;" viewBox="0 0 1024 1024" version="1.1" xmlns="http://www.w3.org/2000/svg"><path d="M864 439.466667V426.666667c0-194.133333-157.866667-352-352-352S160 232.533333 160 426.666667v12.8c-36.266667 4.266667-64 36.266667-64 72.533333v170.666667c0 40.533333 34.133333 74.666667 74.666667 74.666666h85.333333c40.533333 0 74.666667-34.133333 74.666667-74.666666v-170.666667c0-40.533333-34.133333-74.666667-74.666667-74.666667h-32V426.666667c0-157.866667 130.133333-288 288-288S800 268.8 800 426.666667v10.666666H768c-40.533333 0-74.666667 34.133333-74.666667 74.666667v170.666667c0 40.533333 34.133333 74.666667 74.666667 74.666666h21.333333c-17.066667 49.066667-59.733333 98.133333-179.2 106.666667-12.8-19.2-32-32-55.466666-32-36.266667 0-64 27.733333-64 64s27.733333 64 64 64c23.466667 0 44.8-12.8 55.466666-34.133333 166.4-10.666667 226.133333-91.733333 245.333334-170.666667 40.533333-2.133333 72.533333-34.133333 72.533333-74.666667v-170.666666c0-36.266667-27.733333-66.133333-64-70.4z m-597.333333 72.533333v170.666667c0 6.4-4.266667 10.666667-10.666667 10.666666H170.666667c-6.4 0-10.666667-4.266667-10.666667-10.666666v-170.666667c0-6.4 4.266667-10.666667 10.666667-10.666667h85.333333c6.4 0 10.666667 4.266667 10.666667 10.666667z m597.333333 170.666667c0 6.4-4.266667 10.666667-10.666667 10.666666h-85.333333c-6.4 0-10.666667-4.266667-10.666667-10.666666v-170.666667c0-6.4 4.266667-10.666667 10.666667-10.666667h85.333333c6.4 0 10.666667 4.266667 10.666667 10.666667v170.666667z" /></svg>