<?xml version="1.0" standalone="no"?>
<!DOCTYPE svg PUBLIC "-//W3C//DTD SVG 1.1//EN" "http://www.w3.org/Graphics/SVG/1.1/DTD/svg11.dtd">
<svg class="icon" style="width: 1em;height: 1em;vertical-align: middle;fill: currentColor;overflow: hidden;" viewBox="0 0 1024 1024" version="1.1" xmlns="http://www.w3.org/2000/svg"><path d="M983.771 367.543A510.514 510.514 0 0 0 874.057 204.8 510.514 510.514 0 0 0 711.314 95.086C648.114 68.343 581.143 54.857 512 54.857S375.886 68.343 312.686 95.086A510.514 510.514 0 0 0 149.943 204.8 510.514 510.514 0 0 0 40.229 367.543C13.486 430.743 0 497.714 0 566.857c0 151.657 66.629 294.514 182.743 392.114l1.943 1.6c6.628 5.486 14.971 8.572 23.543 8.572h607.657c8.571 0 16.914-3.086 23.543-8.572l1.942-1.6c116-97.6 182.629-240.457 182.629-392.114 0-69.143-13.6-136.114-40.229-199.314zM797.03 882.286H226.97A424.137 424.137 0 0 1 86.857 566.857c0-113.6 44.229-220.343 124.572-300.571C291.77 185.943 398.514 141.714 512 141.714c113.6 0 220.343 44.229 300.571 124.572 80.343 80.343 124.572 187.085 124.572 300.571 0 120.686-50.857 234.857-140.114 315.429z m-157.6-473.715a9.177 9.177 0 0 0-12.915 0l-96.571 96.572c-21.372-5.714-45.029-0.229-61.829 16.571a63.943 63.943 0 0 0 0 90.515 63.943 63.943 0 0 0 90.515 0A63.851 63.851 0 0 0 575.2 550.4l96.571-96.571c3.543-3.543 3.543-9.372 0-12.915l-32.342-32.343z m-152.572-116h50.286c5.028 0 9.143-4.114 9.143-9.142V192c0-5.029-4.115-9.143-9.143-9.143h-50.286c-5.028 0-9.143 4.114-9.143 9.143v91.429c0 5.028 4.115 9.142 9.143 9.142zM784 541.714V592c0 5.029 4.114 9.143 9.143 9.143h91.428c5.029 0 9.143-4.114 9.143-9.143v-50.286c0-5.028-4.114-9.143-9.143-9.143h-91.428c-5.029 0-9.143 4.115-9.143 9.143z m14.514-225.371L762.971 280.8a9.177 9.177 0 0 0-12.914 0l-64.686 64.686a9.177 9.177 0 0 0 0 12.914l35.543 35.543c3.543 3.543 9.372 3.543 12.915 0l64.685-64.686c3.543-3.543 3.543-9.371 0-12.914zM274.4 280.8a9.177 9.177 0 0 0-12.914 0l-35.543 35.543a9.177 9.177 0 0 0 0 12.914l64.686 64.686c3.542 3.543 9.371 3.543 12.914 0l35.543-35.543c3.543-3.543 3.543-9.371 0-12.914L274.4 280.8z m-48.114 251.771h-91.429c-5.028 0-9.143 4.115-9.143 9.143V592c0 5.029 4.115 9.143 9.143 9.143h91.429c5.028 0 9.143-4.114 9.143-9.143v-50.286c0-5.028-4.115-9.143-9.143-9.143z" /></svg>