<?xml version="1.0" standalone="no"?>
<!DOCTYPE svg PUBLIC "-//W3C//DTD SVG 1.1//EN" "http://www.w3.org/Graphics/SVG/1.1/DTD/svg11.dtd">
<svg class="icon" style="width: 1em;height: 1em;vertical-align: middle;fill: currentColor;overflow: hidden;" viewBox="0 0 1024 1024" version="1.1" xmlns="http://www.w3.org/2000/svg"><path d="M896 467.2l-362.666667-341.333333c-2.133333-2.133333-6.4-4.266667-8.533333-6.4-4.266667-2.133333-6.4-2.133333-10.666667-2.133334s-8.533333 0-10.666666 2.133334c-4.266667 2.133333-6.4 4.266667-8.533334 6.4l-362.666666 341.333333c-12.8 12.8-12.8 32-2.133334 44.8 12.8 12.8 32 12.8 44.8 2.133333l309.333334-290.133333V874.666667c0 17.066667 14.933333 32 32 32s32-14.933333 32-32V224L853.333333 514.133333c6.4 6.4 14.933333 8.533333 21.333334 8.533334 8.533333 0 17.066667-4.266667 23.466666-10.666667 12.8-12.8 10.666667-32-2.133333-44.8z" /></svg>