<?xml version="1.0" standalone="no"?>
<!DOCTYPE svg PUBLIC "-//W3C//DTD SVG 1.1//EN" "http://www.w3.org/Graphics/SVG/1.1/DTD/svg11.dtd">
<svg class="icon" style="width: 1em;height: 1em;vertical-align: middle;fill: currentColor;overflow: hidden;" viewBox="0 0 1024 1024" version="1.1" xmlns="http://www.w3.org/2000/svg"><path d="M898.133333 512c-12.8-12.8-32-12.8-44.8-2.133333L544 800V149.333333c0-17.066667-14.933333-32-32-32s-32 14.933333-32 32v650.666667L170.666667 509.866667c-12.8-12.8-34.133333-10.666667-44.8 2.133333-12.8 12.8-10.666667 34.133333 2.133333 44.8l362.666667 341.333333c2.133333 2.133333 6.4 4.266667 8.533333 6.4 4.266667 2.133333 6.4 2.133333 10.666667 2.133334s8.533333 0 10.666666-2.133334c4.266667-2.133333 6.4-4.266667 8.533334-6.4l362.666666-341.333333c17.066667-12.8 19.2-32 6.4-44.8z" /></svg>