<?xml version="1.0" standalone="no"?>
<!DOCTYPE svg PUBLIC "-//W3C//DTD SVG 1.1//EN" "http://www.w3.org/Graphics/SVG/1.1/DTD/svg11.dtd">
<svg class="icon" style="width: 1em;height: 1em;vertical-align: middle;fill: currentColor;overflow: hidden;" viewBox="0 0 1024 1024" version="1.1" xmlns="http://www.w3.org/2000/svg"><path d="M853.333 224H800v-53.333C800 130.133 765.867 96 725.333 96H170.667C130.133 96 96 130.133 96 170.667v554.666C96 765.867 130.133 800 170.667 800H224v53.333C224 893.867 258.133 928 298.667 928h554.666C893.867 928 928 893.867 928 853.333V298.667C928 258.133 893.867 224 853.333 224zM160 725.333V170.667c0-6.4 4.267-10.667 10.667-10.667h554.666c6.4 0 10.667 4.267 10.667 10.667v554.666c0 6.4-4.267 10.667-10.667 10.667H170.667c-6.4 0-10.667-4.267-10.667-10.667z m704 128c0 6.4-4.267 10.667-10.667 10.667H298.667c-6.4 0-10.667-4.267-10.667-10.667V800h437.333C765.867 800 800 765.867 800 725.333V288h53.333c6.4 0 10.667 4.267 10.667 10.667v554.666zM576 416h-96v-96c0-17.067-14.933-32-32-32s-32 14.933-32 32v96h-96c-17.067 0-32 14.933-32 32s14.933 32 32 32h96v96c0 17.067 14.933 32 32 32s32-14.933 32-32v-96h96c17.067 0 32-14.933 32-32s-14.933-32-32-32z" /></svg>