<?xml version="1.0" standalone="no"?>
<!DOCTYPE svg PUBLIC "-//W3C//DTD SVG 1.1//EN" "http://www.w3.org/Graphics/SVG/1.1/DTD/svg11.dtd">
<svg class="icon" style="width: 1em;height: 1em;vertical-align: middle;fill: currentColor;overflow: hidden;" viewBox="0 0 1024 1024" version="1.1" xmlns="http://www.w3.org/2000/svg"><path d="M512 74.666667C270.933333 74.666667 74.666667 270.933333 74.666667 512S270.933333 949.333333 512 949.333333 949.333333 753.066667 949.333333 512 753.066667 74.666667 512 74.666667z m0 810.666666c-204.8 0-373.333333-168.533333-373.333333-373.333333S307.2 138.666667 512 138.666667 885.333333 307.2 885.333333 512 716.8 885.333333 512 885.333333zM657.066667 360.533333c-12.8-12.8-32-12.8-44.8 0l-102.4 102.4-102.4-102.4c-12.8-12.8-32-12.8-44.8 0-12.8 12.8-12.8 32 0 44.8l102.4 102.4-102.4 102.4c-12.8 12.8-12.8 32 0 44.8 6.4 6.4 14.933333 8.533333 23.466666 8.533334s17.066667-2.133333 23.466667-8.533334l102.4-102.4 102.4 102.4c6.4 6.4 14.933333 8.533333 23.466667 8.533334s17.066667-2.133333 23.466666-8.533334c12.8-12.8 12.8-32 0-44.8l-106.666666-100.266666 102.4-102.4c12.8-12.8 12.8-34.133333 0-46.933334z" /></svg>