<?xml version="1.0" standalone="no"?>
<!DOCTYPE svg PUBLIC "-//W3C//DTD SVG 1.1//EN" "http://www.w3.org/Graphics/SVG/1.1/DTD/svg11.dtd">
<svg class="icon" style="width: 1em;height: 1em;vertical-align: middle;fill: currentColor;overflow: hidden;" viewBox="0 0 1024 1024" version="1.1" xmlns="http://www.w3.org/2000/svg"><path d="M789.333333 74.666667H234.666667C194.133333 74.666667 160 108.8 160 149.333333v725.333334c0 40.533333 34.133333 74.666667 74.666667 74.666666h554.666666c40.533333 0 74.666667-34.133333 74.666667-74.666666V149.333333c0-40.533333-34.133333-74.666667-74.666667-74.666666z m-138.666666 64v296.533333L576 364.8c-6.4-6.4-14.933333-8.533333-21.333333-8.533333-8.533333 0-17.066667 2.133333-21.333334 8.533333l-74.666666 72.533333v-298.666666h192z m149.333333 736c0 6.4-4.266667 10.666667-10.666667 10.666666H234.666667c-6.4 0-10.666667-4.266667-10.666667-10.666666V149.333333c0-6.4 4.266667-10.666667 10.666667-10.666666h160v322.133333c0 14.933333 6.4 27.733333 14.933333 36.266667 21.333333 21.333333 53.333333 21.333333 74.666667 0l70.4-68.266667 70.4 68.266667c10.666667 10.666667 23.466667 14.933333 36.266666 14.933333 29.866667 0 53.333333-23.466667 53.333334-53.333333v-320H789.333333c6.4 0 10.666667 4.266667 10.666667 10.666666v725.333334z" /></svg>