<?xml version="1.0" standalone="no"?>
<!DOCTYPE svg PUBLIC "-//W3C//DTD SVG 1.1//EN" "http://www.w3.org/Graphics/SVG/1.1/DTD/svg11.dtd">
<svg class="icon" style="width: 1em;height: 1em;vertical-align: middle;fill: currentColor;overflow: hidden;" viewBox="0 0 1024 1024" version="1.1" xmlns="http://www.w3.org/2000/svg"><path d="M955.733333 492.8c-6.4-12.8-162.133333-317.866667-443.733333-317.866667-23.466667 0-46.933333 2.133333-70.4 6.4-17.066667 4.266667-29.866667 19.2-25.6 36.266667 4.266667 17.066667 19.2 29.866667 36.266667 25.6 19.2-4.266667 38.4-4.266667 57.6-4.266667 209.066667 0 345.6 209.066667 379.733333 266.666667-10.666667 19.2-32 53.333333-64 91.733333-10.666667 12.8-8.533333 34.133333 4.266667 44.8 6.4 4.266667 12.8 6.4 21.333333 6.4s19.2-4.266667 25.6-10.666666c51.2-61.866667 78.933333-115.2 78.933333-117.333334 6.4-8.533333 6.4-19.2 0-27.733333zM215.466667 125.866667c-12.8-12.8-32-12.8-44.8 0-12.8 12.8-12.8 32 0 44.8l91.733333 91.733333C138.666667 354.133333 72.533333 484.266667 68.266667 490.666667c-4.266667 8.533333-4.266667 19.2 0 29.866666 6.4 12.8 162.133333 315.733333 443.733333 315.733334 83.2 0 164.266667-27.733333 241.066667-81.066667l96 96c6.4 6.4 14.933333 8.533333 23.466666 8.533333s17.066667-2.133333 23.466667-8.533333c12.8-12.8 12.8-32 0-44.8L215.466667 125.866667z m243.2 334.933333l104.533333 104.533333c-12.8 12.8-32 21.333333-51.2 21.333334-40.533333 0-74.666667-34.133333-74.666667-74.666667 0-19.2 8.533333-38.4 21.333334-51.2zM512 772.266667c-209.066667 0-345.6-209.066667-379.733333-266.666667 21.333333-36.266667 81.066667-130.133333 174.933333-196.266667l104.533333 104.533334c-25.6 25.6-38.4 59.733333-38.4 96 0 76.8 61.866667 138.666667 138.666667 138.666666 36.266667 0 70.4-14.933333 96-38.4l98.133333 98.133334c-61.866667 42.666667-128 64-194.133333 64z" /></svg>