<?xml version="1.0" standalone="no"?>
<!DOCTYPE svg PUBLIC "-//W3C//DTD SVG 1.1//EN" "http://www.w3.org/Graphics/SVG/1.1/DTD/svg11.dtd">
<svg class="icon" style="width: 1em;height: 1em;vertical-align: middle;fill: currentColor;overflow: hidden;" viewBox="0 0 1024 1024" version="1.1" xmlns="http://www.w3.org/2000/svg"><path d="M295.2 421.4c-15 15-15 39.6 0 54.6l191.4 190.8c14.6 14.6 38.2 15 53.2 1.2l188.6-188c7.6-7.6 11.4-17.4 11.4-27.4 0-9.8-3.8-19.8-11.2-27.2-15-15-39.4-15.2-54.6 0L512 585 349.8 421.2c-15-15-39.4-15-54.6 0.2zM96 512c0 229.8 186.2 416 416 416s416-186.2 416-416S741.8 96 512 96 96 282.2 96 512z m664.8-248.8C827.4 329.6 864 418 864 512s-36.6 182.4-103.2 248.8C694.4 827.4 606 864 512 864s-182.4-36.6-248.8-103.2C196.6 694.4 160 606 160 512s36.6-182.4 103.2-248.8C329.6 196.6 418 160 512 160s182.4 36.6 248.8 103.2z" /></svg>