<?xml version="1.0" standalone="no"?>
<!DOCTYPE svg PUBLIC "-//W3C//DTD SVG 1.1//EN" "http://www.w3.org/Graphics/SVG/1.1/DTD/svg11.dtd">
<svg class="icon" style="width: 1em;height: 1em;vertical-align: middle;fill: currentColor;overflow: hidden;" viewBox="0 0 1024 1024" version="1.1" xmlns="http://www.w3.org/2000/svg"><path d="M159.927 689.426H290.65l-39.003 193.72c-0.86 4.278-1.28 9.435-1.28 13.713 0 20.992 14.555 32.567 34.706 32.567 20.572 0 35.566-11.154 39.863-32.146l41.984-207.854h202.716l-38.986 193.72c-1.28 4.278-1.7 9.435-1.7 13.713 0 20.992 14.574 32.567 35.145 32.567s35.566-11.154 39.863-32.146l41.527-207.854h152.996c23.57 0 39.863-17.133 39.863-40.283 0-18.853-12.855-34.286-32.146-34.286H660.9l45.476-226.286h149.998c23.588 0 39.863-17.152 39.863-40.283 0-18.853-12.855-34.286-32.147-34.286h-142.72l35.146-172.727c0.42-2.56 1.28-8.137 1.28-13.714 0-20.992-14.995-32.987-35.566-32.987-23.991 0-34.706 13.275-39.004 33.426l-37.705 186.002H442.79l35.145-172.727c0.42-2.56 1.28-8.137 1.28-13.714 0-20.992-15.433-32.987-35.566-32.987-24.43 0-35.584 13.275-39.442 33.426L366.5 314.002H225.92c-23.57 0-39.863 17.993-39.863 41.564 0 19.291 12.873 33.005 32.165 33.005h133.284l-45.44 226.286H167.643c-23.588 0-39.862 17.993-39.862 41.564 0 19.291 12.854 33.005 32.146 33.005z m221.988-74.569l45.88-226.286H630.49L584.65 614.857z" /></svg>