<?xml version="1.0" standalone="no"?>
<!DOCTYPE svg PUBLIC "-//W3C//DTD SVG 1.1//EN" "http://www.w3.org/Graphics/SVG/1.1/DTD/svg11.dtd">
<svg class="icon" style="width: 1em;height: 1em;vertical-align: middle;fill: currentColor;overflow: hidden;" viewBox="0 0 1024 1024" version="1.1" xmlns="http://www.w3.org/2000/svg"><path d="M842.666667 285.866667l-187.733334-187.733334c-14.933333-14.933333-32-21.333333-53.333333-21.333333H234.666667C194.133333 74.666667 160 108.8 160 149.333333v725.333334c0 40.533333 34.133333 74.666667 74.666667 74.666666h554.666666c40.533333 0 74.666667-34.133333 74.666667-74.666666V337.066667c0-19.2-8.533333-38.4-21.333333-51.2z m-44.8 44.8c-2.133333 2.133333-4.266667 0-8.533334 0h-170.666666c-6.4 0-10.666667-4.266667-10.666667-10.666667V149.333333c0-2.133333 0-6.4-2.133333-8.533333 0 0 2.133333 0 2.133333 2.133333l189.866667 187.733334z m-8.533334 554.666666H234.666667c-6.4 0-10.666667-4.266667-10.666667-10.666666V149.333333c0-6.4 4.266667-10.666667 10.666667-10.666666h311.466666c-2.133333 4.266667-2.133333 6.4-2.133333 10.666666v170.666667c0 40.533333 34.133333 74.666667 74.666667 74.666667h170.666666c4.266667 0 6.4 0 10.666667-2.133334V874.666667c0 6.4-4.266667 10.666667-10.666667 10.666666zM640 693.333333H341.333333c-17.066667 0-32 14.933333-32 32s14.933333 32 32 32h298.666667c17.066667 0 32-14.933333 32-32s-14.933333-32-32-32zM640 522.666667H341.333333c-17.066667 0-32 14.933333-32 32s14.933333 32 32 32h298.666667c17.066667 0 32-14.933333 32-32s-14.933333-32-32-32zM341.333333 416h85.333334c17.066667 0 32-14.933333 32-32s-14.933333-32-32-32h-85.333334c-17.066667 0-32 14.933333-32 32s14.933333 32 32 32z" /></svg>