<?xml version="1.0" standalone="no"?>
<!DOCTYPE svg PUBLIC "-//W3C//DTD SVG 1.1//EN" "http://www.w3.org/Graphics/SVG/1.1/DTD/svg11.dtd">
<svg class="icon" style="width: 1em;height: 1em;vertical-align: middle;fill: currentColor;overflow: hidden;" viewBox="0 0 1024 1024" version="1.1" xmlns="http://www.w3.org/2000/svg"><path d="M853.333333 96H170.666667C130.133333 96 96 130.133333 96 170.666667v682.666666c0 40.533333 34.133333 74.666667 74.666667 74.666667h682.666666c40.533333 0 74.666667-34.133333 74.666667-74.666667V170.666667c0-40.533333-34.133333-74.666667-74.666667-74.666667z m10.666667 384h-149.333333v-106.666667h149.333333v106.666667z m-213.333333 0h-277.333334v-320h277.333334v320z m-341.333334 0h-149.333333v-106.666667h149.333333v106.666667z m-149.333333 64h149.333333v106.666667h-149.333333v-106.666667z m213.333333 0h277.333334v320h-277.333334v-320z m341.333334 0h149.333333v106.666667h-149.333333v-106.666667z m149.333333-373.333333v138.666666h-149.333333v-149.333333H853.333333c6.4 0 10.666667 4.266667 10.666667 10.666667zM170.666667 160h138.666666v149.333333h-149.333333V170.666667c0-6.4 4.266667-10.666667 10.666667-10.666667zM160 853.333333v-138.666666h149.333333v149.333333H170.666667c-6.4 0-10.666667-4.266667-10.666667-10.666667z m693.333333 10.666667h-138.666666v-149.333333h149.333333V853.333333c0 6.4-4.266667 10.666667-10.666667 10.666667z" /></svg>