<?xml version="1.0" standalone="no"?>
<!DOCTYPE svg PUBLIC "-//W3C//DTD SVG 1.1//EN" "http://www.w3.org/Graphics/SVG/1.1/DTD/svg11.dtd">
<svg class="icon" style="width: 1em;height: 1em;vertical-align: middle;fill: currentColor;overflow: hidden;" viewBox="0 0 1024 1024" version="1.1" xmlns="http://www.w3.org/2000/svg"><path d="M149.333333 394.666667c17.066667 0 32-14.933333 32-32v-136.533334l187.733334 187.733334c6.4 6.4 14.933333 8.533333 23.466666 8.533333s17.066667-2.133333 23.466667-8.533333c12.8-12.8 12.8-32 0-44.8l-187.733333-187.733334H362.666667c17.066667 0 32-14.933333 32-32s-14.933333-32-32-32H149.333333c-4.266667 0-8.533333 0-10.666666 2.133334-8.533333 4.266667-14.933333 10.666667-19.2 17.066666-2.133333 4.266667-2.133333 8.533333-2.133334 12.8v213.333334c0 17.066667 14.933333 32 32 32zM874.666667 629.333333c-17.066667 0-32 14.933333-32 32v136.533334L642.133333 597.333333c-12.8-12.8-32-12.8-44.8 0s-12.8 32 0 44.8l200.533334 200.533334H661.333333c-17.066667 0-32 14.933333-32 32s14.933333 32 32 32h213.333334c4.266667 0 8.533333 0 10.666666-2.133334 8.533333-4.266667 14.933333-8.533333 17.066667-17.066666 2.133333-4.266667 2.133333-8.533333 2.133333-10.666667V661.333333c2.133333-17.066667-12.8-32-29.866666-32zM381.866667 595.2l-200.533334 200.533333V661.333333c0-17.066667-14.933333-32-32-32s-32 14.933333-32 32v213.333334c0 4.266667 0 8.533333 2.133334 10.666666 4.266667 8.533333 8.533333 14.933333 17.066666 17.066667 4.266667 2.133333 8.533333 2.133333 10.666667 2.133333h213.333333c17.066667 0 32-14.933333 32-32s-14.933333-32-32-32h-136.533333l200.533333-200.533333c12.8-12.8 12.8-32 0-44.8s-29.866667-10.666667-42.666666 0zM904.533333 138.666667c0-2.133333 0-2.133333 0 0-4.266667-8.533333-10.666667-14.933333-17.066666-17.066667-4.266667-2.133333-8.533333-2.133333-10.666667-2.133333H661.333333c-17.066667 0-32 14.933333-32 32s14.933333 32 32 32h136.533334l-187.733334 187.733333c-12.8 12.8-12.8 32 0 44.8 6.4 6.4 14.933333 8.533333 23.466667 8.533333s17.066667-2.133333 23.466667-8.533333l187.733333-187.733333V362.666667c0 17.066667 14.933333 32 32 32s32-14.933333 32-32V149.333333c-2.133333-4.266667-2.133333-8.533333-4.266667-10.666666z" /></svg>