<?xml version="1.0" standalone="no"?>
<!DOCTYPE svg PUBLIC "-//W3C//DTD SVG 1.1//EN" "http://www.w3.org/Graphics/SVG/1.1/DTD/svg11.dtd">
<svg class="icon" style="width: 1em;height: 1em;vertical-align: middle;fill: currentColor;overflow: hidden;" viewBox="0 0 1024 1024" version="1.1" xmlns="http://www.w3.org/2000/svg"><path d="M313.6 358.4H177.066667c-17.066667 0-32 14.933333-32 32s14.933333 32 32 32h213.333333c4.266667 0 8.533333 0 10.666667-2.133333 8.533333-4.266667 14.933333-8.533333 17.066666-17.066667 2.133333-4.266667 2.133333-8.533333 2.133334-10.666667v-213.333333c0-17.066667-14.933333-32-32-32s-32 14.933333-32 32v136.533333L172.8 125.866667c-12.8-12.8-32-12.8-44.8 0-12.8 12.8-12.8 32 0 44.8l185.6 187.733333zM695.466667 650.666667H832c17.066667 0 32-14.933333 32-32s-14.933333-32-32-32H618.666667c-4.266667 0-8.533333 0-10.666667 2.133333-8.533333 4.266667-14.933333 8.533333-17.066667 17.066667-2.133333 4.266667-2.133333 8.533333-2.133333 10.666666v213.333334c0 17.066667 14.933333 32 32 32s32-14.933333 32-32v-136.533334l200.533333 200.533334c6.4 6.4 14.933333 8.533333 23.466667 8.533333s17.066667-2.133333 23.466667-8.533333c12.8-12.8 12.8-32 0-44.8l-204.8-198.4zM435.2 605.866667c-4.266667-8.533333-8.533333-14.933333-17.066667-17.066667-4.266667-2.133333-8.533333-2.133333-10.666666-2.133333H192c-17.066667 0-32 14.933333-32 32s14.933333 32 32 32h136.533333L128 851.2c-12.8 12.8-12.8 32 0 44.8 6.4 6.4 14.933333 8.533333 23.466667 8.533333s17.066667-2.133333 23.466666-8.533333l200.533334-200.533333V832c0 17.066667 14.933333 32 32 32s32-14.933333 32-32V618.666667c-2.133333-4.266667-2.133333-8.533333-4.266667-12.8zM603.733333 403.2c4.266667 8.533333 8.533333 14.933333 17.066667 17.066667 4.266667 2.133333 8.533333 2.133333 10.666667 2.133333h213.333333c17.066667 0 32-14.933333 32-32s-14.933333-32-32-32h-136.533333L896 170.666667c12.8-12.8 12.8-32 0-44.8-12.8-12.8-32-12.8-44.8 0l-187.733333 187.733333V177.066667c0-17.066667-14.933333-32-32-32s-32 14.933333-32 32v213.333333c2.133333 4.266667 2.133333 8.533333 4.266666 12.8z" /></svg>