<?xml version="1.0" standalone="no"?>
<!DOCTYPE svg PUBLIC "-//W3C//DTD SVG 1.1//EN" "http://www.w3.org/Graphics/SVG/1.1/DTD/svg11.dtd">
<svg class="icon" style="width: 1em;height: 1em;vertical-align: middle;fill: currentColor;overflow: hidden;" viewBox="0 0 1024 1024" version="1.1" xmlns="http://www.w3.org/2000/svg"><path d="M896 768a32 32 0 0 1 31.776 28.256L928 800v128a32 32 0 0 1-28.256 31.776L896 960H544a32 32 0 0 1-31.776-28.256L512 928V800a32 32 0 0 1 28.256-31.776L544 768h352zM448 128a32 32 0 0 1 3.744 63.776L448 192H160v288.544l3.392-0.576 3.744-0.224L448 480a32 32 0 0 1 3.68 63.776l-3.744 0.224-280.896-0.256c-2.432 0-4.8-0.256-7.04-0.768V832h288a32 32 0 0 1 3.744 63.776L448 896H160a64 64 0 0 1-63.84-59.2L96 832V192a64 64 0 0 1 59.2-63.84l4.8-0.16h288z m416 704H576v64h288v-64z m32-416a32 32 0 0 1 31.776 28.256L928 448v128a32 32 0 0 1-28.256 31.776L896 608H544a32 32 0 0 1-31.776-28.256L512 576V448a32 32 0 0 1 28.256-31.776L544 416h352z m-32 64H576v64h288v-64z m32-416a32 32 0 0 1 31.776 28.256L928 96v128a32 32 0 0 1-28.256 31.776L896 256H544a32 32 0 0 1-31.776-28.256L512 224V96a32 32 0 0 1 28.256-31.776L544 64h352z m-32 64H576v64h288v-64z" /></svg>