<?xml version="1.0" standalone="no"?>
<!DOCTYPE svg PUBLIC "-//W3C//DTD SVG 1.1//EN" "http://www.w3.org/Graphics/SVG/1.1/DTD/svg11.dtd">
<svg class="icon" style="width: 1em;height: 1em;vertical-align: middle;fill: currentColor;overflow: hidden;" viewBox="0 0 1024 1024" version="1.1" xmlns="http://www.w3.org/2000/svg"><path d="M917.333333 573.866667l-87.466666-87.466667c34.133333-32 66.133333-68.266667 91.733333-108.8 8.533333-14.933333 4.266667-34.133333-10.666667-44.8-14.933333-8.533333-34.133333-4.266667-44.8 10.666667-76.8 125.866667-209.066667 200.533333-356.266666 200.533333-145.066667 0-279.466667-74.666667-354.133334-198.4-8.533333-14.933333-29.866667-19.2-44.8-10.666667-14.933333 8.533333-19.2 29.866667-10.666666 44.8 25.6 40.533333 55.466667 76.8 91.733333 108.8l-85.333333 85.333334c-12.8 12.8-12.8 32 0 44.8 6.4 6.4 14.933333 8.533333 23.466666 8.533333s17.066667-2.133333 23.466667-8.533333l91.733333-91.733334c38.4 25.6 81.066667 46.933333 125.866667 59.733334l-34.133333 130.133333c-4.266667 17.066667 6.4 34.133333 23.466666 38.4 2.133333 0 6.4 2.133333 8.533334 2.133333 14.933333 0 27.733333-8.533333 29.866666-23.466666l36.266667-132.266667c25.6 4.266667 51.2 6.4 78.933333 6.4 27.733333 0 55.466667-2.133333 83.2-6.4l36.266667 132.266667c4.266667 14.933333 17.066667 23.466667 29.866667 23.466666 2.133333 0 6.4 0 8.533333-2.133333 17.066667-4.266667 27.733333-21.333333 23.466667-38.4L661.333333 584.533333c44.8-12.8 85.333333-34.133333 123.733334-59.733333l91.733333 91.733333c6.4 6.4 14.933333 8.533333 23.466667 8.533334s17.066667-2.133333 23.466666-8.533334c6.4-10.666667 6.4-29.866667-6.4-42.666666z" /></svg>