<?xml version="1.0" standalone="no"?>
<!DOCTYPE svg PUBLIC "-//W3C//DTD SVG 1.1//EN" "http://www.w3.org/Graphics/SVG/1.1/DTD/svg11.dtd">
<svg class="icon" style="width: 1em;height: 1em;vertical-align: middle;fill: currentColor;overflow: hidden;" viewBox="0 0 1024 1024" version="1.1" xmlns="http://www.w3.org/2000/svg"><path d="M512 74.666667C270.933333 74.666667 74.666667 270.933333 74.666667 512S270.933333 949.333333 512 949.333333 949.333333 753.066667 949.333333 512 753.066667 74.666667 512 74.666667z m0 810.666666c-204.8 0-373.333333-168.533333-373.333333-373.333333S307.2 138.666667 512 138.666667 885.333333 307.2 885.333333 512 716.8 885.333333 512 885.333333zM512 309.333333c-17.066667 0-32 14.933333-32 32v42.666667c0 17.066667 14.933333 32 32 32s32-14.933333 32-32v-42.666667c0-17.066667-14.933333-32-32-32zM512 458.666667c-17.066667 0-32 14.933333-32 32v42.666666c0 17.066667 14.933333 32 32 32s32-14.933333 32-32v-42.666666c0-17.066667-14.933333-32-32-32zM512 608c-17.066667 0-32 14.933333-32 32v42.666667c0 17.066667 14.933333 32 32 32s32-14.933333 32-32v-42.666667c0-17.066667-14.933333-32-32-32zM650.666667 309.333333c-17.066667 0-32 14.933333-32 32v42.666667c0 17.066667 14.933333 32 32 32S682.666667 401.066667 682.666667 384v-42.666667c0-17.066667-14.933333-32-32-32zM650.666667 458.666667c-17.066667 0-32 14.933333-32 32v42.666666c0 17.066667 14.933333 32 32 32S682.666667 550.4 682.666667 533.333333v-42.666666c0-17.066667-14.933333-32-32-32zM650.666667 608c-17.066667 0-32 14.933333-32 32v42.666667c0 17.066667 14.933333 32 32 32S682.666667 699.733333 682.666667 682.666667v-42.666667c0-17.066667-14.933333-32-32-32zM373.333333 309.333333c-17.066667 0-32 14.933333-32 32v42.666667c0 17.066667 14.933333 32 32 32S405.333333 401.066667 405.333333 384v-42.666667c0-17.066667-14.933333-32-32-32zM373.333333 458.666667c-17.066667 0-32 14.933333-32 32v42.666666c0 17.066667 14.933333 32 32 32S405.333333 550.4 405.333333 533.333333v-42.666666c0-17.066667-14.933333-32-32-32zM373.333333 608c-17.066667 0-32 14.933333-32 32v42.666667c0 17.066667 14.933333 32 32 32S405.333333 699.733333 405.333333 682.666667v-42.666667c0-17.066667-14.933333-32-32-32z" /></svg>