<?xml version="1.0" standalone="no"?>
<!DOCTYPE svg PUBLIC "-//W3C//DTD SVG 1.1//EN" "http://www.w3.org/Graphics/SVG/1.1/DTD/svg11.dtd">
<svg class="icon" style="width: 1em;height: 1em;vertical-align: middle;fill: currentColor;overflow: hidden;" viewBox="0 0 1024 1024" version="1.1" xmlns="http://www.w3.org/2000/svg"><path d="M512 74.666667C270.933333 74.666667 74.666667 270.933333 74.666667 512S270.933333 949.333333 512 949.333333 949.333333 753.066667 949.333333 512 753.066667 74.666667 512 74.666667z m0 810.666666c-204.8 0-373.333333-168.533333-373.333333-373.333333S307.2 138.666667 512 138.666667 885.333333 307.2 885.333333 512 716.8 885.333333 512 885.333333zM448 437.333333c17.066667 0 32-14.933333 32-32v-42.666666c0-17.066667-14.933333-32-32-32s-32 14.933333-32 32v42.666666c0 17.066667 14.933333 32 32 32zM576 437.333333c17.066667 0 32-14.933333 32-32v-42.666666c0-17.066667-14.933333-32-32-32s-32 14.933333-32 32v42.666666c0 17.066667 14.933333 32 32 32zM320 437.333333c17.066667 0 32-14.933333 32-32v-42.666666c0-17.066667-14.933333-32-32-32s-32 14.933333-32 32v42.666666c0 17.066667 14.933333 32 32 32zM704 330.666667c-17.066667 0-32 14.933333-32 32v42.666666c0 17.066667 14.933333 32 32 32s32-14.933333 32-32v-42.666666c0-17.066667-14.933333-32-32-32zM448 586.666667c17.066667 0 32-14.933333 32-32v-42.666667c0-17.066667-14.933333-32-32-32s-32 14.933333-32 32v42.666667c0 17.066667 14.933333 32 32 32zM576 586.666667c17.066667 0 32-14.933333 32-32v-42.666667c0-17.066667-14.933333-32-32-32s-32 14.933333-32 32v42.666667c0 17.066667 14.933333 32 32 32zM352 554.666667v-42.666667c0-17.066667-14.933333-32-32-32s-32 14.933333-32 32v42.666667c0 17.066667 14.933333 32 32 32s32-14.933333 32-32zM704 480c-17.066667 0-32 14.933333-32 32v42.666667c0 17.066667 14.933333 32 32 32s32-14.933333 32-32v-42.666667c0-17.066667-14.933333-32-32-32zM682.666667 650.666667H341.333333c-17.066667 0-32 14.933333-32 32s14.933333 32 32 32h341.333334c17.066667 0 32-14.933333 32-32s-14.933333-32-32-32z" /></svg>