<?xml version="1.0" standalone="no"?>
<!DOCTYPE svg PUBLIC "-//W3C//DTD SVG 1.1//EN" "http://www.w3.org/Graphics/SVG/1.1/DTD/svg11.dtd">
<svg class="icon" style="width: 1em;height: 1em;vertical-align: middle;fill: currentColor;overflow: hidden;" viewBox="0 0 1024 1024" version="1.1" xmlns="http://www.w3.org/2000/svg"><path d="M110.933333 352l384 192c4.266667 2.133333 10.666667 4.266667 17.066667 4.266667s10.666667-2.133333 17.066667-4.266667l384-192c12.8-6.4 19.2-19.2 19.2-32s-8.533333-25.6-19.2-32l-384-192c-10.666667-4.266667-21.333333-4.266667-32 0l-384 192c-12.8 6.4-19.2 19.2-19.2 32s6.4 25.6 17.066666 32zM512 168.533333L814.933333 320 512 471.466667 209.066667 320 512 168.533333zM878.933333 672L512 855.466667 145.066667 672c-17.066667-8.533333-38.4-2.133333-49.066667 17.066667-8.533333 17.066667-2.133333 38.4 17.066667 49.066666l384 192c4.266667 2.133333 10.666667 4.266667 17.066666 4.266667s10.666667-2.133333 17.066667-4.266667l384-192c17.066667-8.533333 25.6-29.866667 17.066667-49.066666-12.8-19.2-34.133333-25.6-53.333334-17.066667zM878.933333 480L512 663.466667 145.066667 480c-17.066667-8.533333-38.4-2.133333-49.066667 17.066667-8.533333 17.066667-2.133333 38.4 17.066667 49.066666l384 192c4.266667 2.133333 10.666667 4.266667 17.066666 4.266667s10.666667-2.133333 17.066667-4.266667l384-192c17.066667-8.533333 25.6-29.866667 17.066667-49.066666-12.8-19.2-34.133333-25.6-53.333334-17.066667z" /></svg>