<?xml version="1.0" standalone="no"?>
<!DOCTYPE svg PUBLIC "-//W3C//DTD SVG 1.1//EN" "http://www.w3.org/Graphics/SVG/1.1/DTD/svg11.dtd">
<svg class="icon" style="width: 1em;height: 1em;vertical-align: middle;fill: currentColor;overflow: hidden;" viewBox="0 0 1024 1024" version="1.1" xmlns="http://www.w3.org/2000/svg"><path d="M512 74.666667c-17.066667 0-32 14.933333-32 32v149.333333c0 17.066667 14.933333 32 32 32s32-14.933333 32-32V106.666667c0-17.066667-14.933333-32-32-32zM693.333333 362.666667c8.533333 0 17.066667-2.133333 23.466667-8.533334l104.533333-104.533333c12.8-12.8 12.8-32 0-44.8-12.8-12.8-32-12.8-44.8 0l-104.533333 104.533333c-12.8 12.8-12.8 32 0 44.8 4.266667 6.4 12.8 8.533333 21.333333 8.533334zM917.333333 480h-149.333333c-17.066667 0-32 14.933333-32 32s14.933333 32 32 32h149.333333c17.066667 0 32-14.933333 32-32s-14.933333-32-32-32zM714.666667 669.866667c-12.8-12.8-32-12.8-44.8 0s-12.8 32 0 44.8l104.533333 104.533333c6.4 6.4 14.933333 8.533333 23.466667 8.533333s17.066667-2.133333 23.466666-8.533333c12.8-12.8 12.8-32 0-44.8l-106.666666-104.533333zM512 736c-17.066667 0-32 14.933333-32 32v149.333333c0 17.066667 14.933333 32 32 32s32-14.933333 32-32v-149.333333c0-17.066667-14.933333-32-32-32zM309.333333 669.866667l-104.533333 104.533333c-12.8 12.8-12.8 32 0 44.8 6.4 6.4 14.933333 8.533333 23.466667 8.533333s17.066667-2.133333 23.466666-8.533333l104.533334-104.533333c12.8-12.8 12.8-32 0-44.8s-36.266667-12.8-46.933334 0zM288 512c0-17.066667-14.933333-32-32-32H106.666667c-17.066667 0-32 14.933333-32 32s14.933333 32 32 32h149.333333c17.066667 0 32-14.933333 32-32zM247.466667 202.666667c-12.8-12.8-32-12.8-44.8 0-12.8 12.8-12.8 32 0 44.8l104.533333 104.533333c6.4 6.4 14.933333 8.533333 23.466667 8.533333s17.066667-2.133333 23.466666-8.533333c12.8-12.8 12.8-32 0-44.8l-106.666666-104.533333z" /></svg>