<?xml version="1.0" standalone="no"?>
<!DOCTYPE svg PUBLIC "-//W3C//DTD SVG 1.1//EN" "http://www.w3.org/Graphics/SVG/1.1/DTD/svg11.dtd">
<svg class="icon" style="width: 1em;height: 1em;vertical-align: middle;fill: currentColor;overflow: hidden;" viewBox="0 0 1024 1024" version="1.1" xmlns="http://www.w3.org/2000/svg"><path d="M512 949.333333C270.933333 949.333333 74.666667 753.066667 74.666667 512S270.933333 74.666667 512 74.666667 949.333333 270.933333 949.333333 512 753.066667 949.333333 512 949.333333z m0-810.666666C307.2 138.666667 138.666667 307.2 138.666667 512S307.2 885.333333 512 885.333333 885.333333 716.8 885.333333 512 716.8 138.666667 512 138.666667zM682.666667 544H341.333333c-17.066667 0-32-14.933333-32-32s14.933333-32 32-32h341.333334c17.066667 0 32 14.933333 32 32s-14.933333 32-32 32z" /></svg>