<?xml version="1.0" standalone="no"?>
<!DOCTYPE svg PUBLIC "-//W3C//DTD SVG 1.1//EN" "http://www.w3.org/Graphics/SVG/1.1/DTD/svg11.dtd">
<svg class="icon" style="width: 1em;height: 1em;vertical-align: middle;fill: currentColor;overflow: hidden;" viewBox="0 0 1024 1024" version="1.1" xmlns="http://www.w3.org/2000/svg"><path d="M921.6 492.8l-121.6-121.6c-12.8-12.8-32-12.8-44.8 0s-12.8 32 0 44.8l66.133333 66.133333h-277.333333v-277.333333l66.133333 66.133333c6.4 6.4 14.933333 8.533333 23.466667 8.533334s17.066667-2.133333 23.466667-8.533334c12.8-12.8 12.8-32 0-44.8l-121.6-121.6c-12.8-12.8-32-12.8-44.8 0l-121.6 121.6c-12.8 12.8-12.8 32 0 44.8 12.8 12.8 32 12.8 44.8 0l66.133333-66.133333v277.333333h-277.333333l66.133333-66.133333c12.8-12.8 12.8-32 0-44.8-12.8-12.8-32-12.8-44.8 0l-121.6 121.6c-12.8 12.8-12.8 32 0 44.8l121.6 121.6c6.4 6.4 14.933333 8.533333 23.466667 8.533333s17.066667-2.133333 23.466666-8.533333c12.8-12.8 12.8-32 0-44.8l-66.133333-66.133333h277.333333v277.333333l-66.133333-66.133333c-12.8-12.8-32-12.8-44.8 0s-12.8 32 0 44.8l121.6 121.6c6.4 6.4 14.933333 8.533333 23.466667 8.533333s17.066667-2.133333 23.466666-8.533333l121.6-121.6c12.8-12.8 12.8-32 0-44.8s-32-12.8-44.8 0l-66.133333 66.133333v-277.333333h277.333333l-66.133333 66.133333c-12.8 12.8-12.8 32 0 44.8 6.4 6.4 14.933333 8.533333 23.466667 8.533333s17.066667-2.133333 23.466666-8.533333l121.6-121.6c6.4-6.4 8.533333-14.933333 8.533334-23.466667s-10.666667-14.933333-17.066667-21.333333z" /></svg>