<?xml version="1.0" standalone="no"?>
<!DOCTYPE svg PUBLIC "-//W3C//DTD SVG 1.1//EN" "http://www.w3.org/Graphics/SVG/1.1/DTD/svg11.dtd">
<svg class="icon" style="width: 1em;height: 1em;vertical-align: middle;fill: currentColor;overflow: hidden;" viewBox="0 0 1024 1024" version="1.1" xmlns="http://www.w3.org/2000/svg"><path d="M800 625.066667V448c0-117.333333-70.4-217.6-170.666667-262.4-4.266667-61.866667-55.466667-110.933333-117.333333-110.933333s-113.066667 49.066667-117.333333 110.933333c-100.266667 44.8-170.666667 145.066667-170.666667 262.4v177.066667c-57.6 46.933333-85.333333 110.933333-85.333333 185.6 0 17.066667 14.933333 32 32 32h206.933333c14.933333 61.866667 70.4 106.666667 134.4 106.666666s119.466667-44.8 134.4-106.666666H853.333333c17.066667 0 32-14.933333 32-32 0-76.8-27.733333-138.666667-85.333333-185.6zM512 138.666667c19.2 0 36.266667 10.666667 44.8 25.6-14.933333-2.133333-29.866667-4.266667-44.8-4.266667-14.933333 0-29.866667 2.133333-44.8 4.266667 8.533333-14.933333 25.6-25.6 44.8-25.6z m0 746.666666c-29.866667 0-55.466667-17.066667-66.133333-42.666666h134.4c-12.8 25.6-38.4 42.666667-68.266667 42.666666z m-307.2-106.666666c6.4-46.933333 29.866667-83.2 70.4-113.066667 8.533333-6.4 12.8-14.933333 12.8-25.6v-192c0-123.733333 100.266667-224 224-224S736 324.266667 736 448v192c0 10.666667 4.266667 19.2 12.8 25.6 40.533333 29.866667 64 66.133333 70.4 113.066667H204.8z" /></svg>