<?xml version="1.0" standalone="no"?>
<!DOCTYPE svg PUBLIC "-//W3C//DTD SVG 1.1//EN" "http://www.w3.org/Graphics/SVG/1.1/DTD/svg11.dtd">
<svg class="icon" style="width: 1em;height: 1em;vertical-align: middle;fill: currentColor;overflow: hidden;" viewBox="0 0 1024 1024" version="1.1" xmlns="http://www.w3.org/2000/svg"><path d="M823.466667 512H578.133333v-187.733333c0-66.133333-53.333333-119.466667-117.333333-119.466667s-117.333333 53.333333-117.333333 119.466667v296.533333l-21.333334-21.333333c-46.933333-46.933333-121.6-46.933333-168.533333-2.133334s-44.8 121.6 2.133333 168.533334l174.933334 174.933333c6.4 6.4 14.933333 8.533333 23.466666 8.533333 8.533333 0 17.066667-2.133333 23.466667-8.533333 12.8-12.8 12.8-32 0-44.8l-174.933333-174.933333c-21.333333-21.333333-23.466667-57.6-2.133334-76.8 21.333333-21.333333 55.466667-19.2 76.8 2.133333l74.666667 74.666667c12.8 12.8 32 12.8 44.8 0 6.4-6.4 8.533333-14.933333 8.533333-23.466667V326.4c0-29.866667 23.466667-55.466667 53.333334-55.466667s53.333333 25.6 53.333333 55.466667v219.733333c0 17.066667 14.933333 32 32 32h277.333333c6.4 0 10.666667 6.4 10.666667 12.8V917.333333c0 17.066667 14.933333 32 32 32S896 934.4 896 917.333333V586.666667c2.133333-40.533333-32-74.666667-72.533333-74.666667zM266.666667 330.666667c17.066667 0 32-14.933333 32-32 0-87.466667 72.533333-160 160-160S618.666667 211.2 618.666667 298.666667c0 17.066667 14.933333 32 32 32S682.666667 315.733333 682.666667 298.666667c0-123.733333-100.266667-224-224-224S234.666667 174.933333 234.666667 298.666667c0 17.066667 14.933333 32 32 32z" /></svg>