<?xml version="1.0" standalone="no"?>
<!DOCTYPE svg PUBLIC "-//W3C//DTD SVG 1.1//EN" "http://www.w3.org/Graphics/SVG/1.1/DTD/svg11.dtd">
<svg class="icon" style="width: 1em;height: 1em;vertical-align: middle;fill: currentColor;overflow: hidden;" viewBox="0 0 1024 1024" version="1.1" xmlns="http://www.w3.org/2000/svg"><path d="M810.666667 949.333333H213.333333c-40.533333 0-74.666667-34.133333-74.666666-74.666666V149.333333c0-40.533333 34.133333-74.666667 74.666666-74.666666h597.333334c40.533333 0 74.666667 34.133333 74.666666 74.666666v725.333334c0 40.533333-34.133333 74.666667-74.666666 74.666666z m-597.333334-810.666666c-6.4 0-10.666667 4.266667-10.666666 10.666666v725.333334c0 6.4 4.266667 10.666667 10.666666 10.666666h597.333334c6.4 0 10.666667-4.266667 10.666666-10.666666V149.333333c0-6.4-4.266667-10.666667-10.666666-10.666666H213.333333zM512 768m-42.666667 0a42.666667 42.666667 0 1 0 85.333334 0 42.666667 42.666667 0 1 0-85.333334 0Z" /></svg>