<?xml version="1.0" standalone="no"?>
<!DOCTYPE svg PUBLIC "-//W3C//DTD SVG 1.1//EN" "http://www.w3.org/Graphics/SVG/1.1/DTD/svg11.dtd">
<svg class="icon" style="width: 1em;height: 1em;vertical-align: middle;fill: currentColor;overflow: hidden;" viewBox="0 0 1024 1024" version="1.1" xmlns="http://www.w3.org/2000/svg"><path d="M582.4 864H170.666667c-6.4 0-10.666667-4.266667-10.666667-10.666667V170.666667c0-6.4 4.266667-10.666667 10.666667-10.666667h309.333333V320c0 40.533333 34.133333 74.666667 74.666667 74.666667h160v38.4c0 17.066667 14.933333 32 32 32s32-14.933333 32-32V298.666667c0-8.533333-4.266667-17.066667-8.533334-23.466667l-170.666666-170.666667c-6.4-6.4-14.933333-8.533333-23.466667-8.533333H170.666667C130.133333 96 96 130.133333 96 170.666667v682.666666c0 40.533333 34.133333 74.666667 74.666667 74.666667h411.733333c17.066667 0 32-14.933333 32-32s-14.933333-32-32-32z m132.266667-550.4v17.066667H554.666667c-6.4 0-10.666667-4.266667-10.666667-10.666667V160h19.2l151.466667 153.6zM332.8 533.333333c-12.8 0-19.2 2.133333-25.6 6.4-6.4 4.266667-8.533333 12.8-8.533333 23.466667v206.933333c0 6.4 2.133333 12.8 6.4 19.2 4.266667 4.266667 10.666667 8.533333 21.333333 8.533334s17.066667-4.266667 21.333333-8.533334c4.266667-4.266667 6.4-10.666667 6.4-19.2v-64h32c57.6 0 89.6-29.866667 89.6-87.466666 0-27.733333-8.533333-51.2-23.466666-64-14.933333-14.933333-36.266667-21.333333-66.133334-21.333334h-53.333333z m87.466667 85.333334c0 12.8-2.133333 23.466667-8.533334 27.733333-4.266667 4.266667-14.933333 8.533333-27.733333 8.533333h-32v-70.4H384c12.8 0 21.333333 2.133333 27.733333 8.533334 6.4 4.266667 8.533333 12.8 8.533334 25.6zM667.733333 571.733333c-8.533333-12.8-21.333333-21.333333-34.133333-29.866666-14.933333-4.266667-32-8.533333-51.2-8.533334h-61.866667c-8.533333 0-17.066667 0-23.466666 8.533334-2.133333 4.266667-4.266667 10.666667-4.266667 19.2V768c0 8.533333 2.133333 14.933333 4.266667 19.2 6.4 8.533333 14.933333 8.533333 23.466666 8.533333h64c19.2 0 34.133333-4.266667 49.066667-10.666666 12.8-6.4 25.6-17.066667 34.133333-29.866667 8.533333-12.8 14.933333-25.6 19.2-42.666667 4.266667-14.933333 6.4-32 6.4-49.066666 0-17.066667-2.133333-34.133333-6.4-49.066667-4.266667-14.933333-10.666667-29.866667-19.2-42.666667z m-42.666666 153.6c-8.533333 12.8-21.333333 19.2-38.4 19.2h-38.4v-160H576c21.333333 0 38.4 6.4 46.933333 19.2 10.666667 12.8 14.933333 34.133333 14.933334 59.733334 2.133333 27.733333-4.266667 46.933333-12.8 61.866666zM851.2 533.333333h-106.666667c-8.533333 0-17.066667 2.133333-21.333333 6.4-6.4 4.266667-8.533333 12.8-8.533333 21.333334v209.066666c0 6.4 2.133333 12.8 6.4 17.066667 4.266667 6.4 10.666667 8.533333 21.333333 8.533333 8.533333 0 17.066667-2.133333 21.333333-8.533333 2.133333-4.266667 6.4-8.533333 6.4-19.2v-85.333333h72.533334c12.8 0 23.466667-6.4 25.6-17.066667 2.133333-8.533333 2.133333-14.933333 0-17.066667-2.133333-4.266667-6.4-17.066667-25.6-17.066666H768v-49.066667h81.066667c8.533333 0 14.933333-2.133333 19.2-4.266667 4.266667-2.133333 8.533333-8.533333 8.533333-21.333333 2.133333-12.8-8.533333-23.466667-25.6-23.466667z" /></svg>