<?xml version="1.0" standalone="no"?>
<!DOCTYPE svg PUBLIC "-//W3C//DTD SVG 1.1//EN" "http://www.w3.org/Graphics/SVG/1.1/DTD/svg11.dtd">
<svg class="icon" style="width: 1em;height: 1em;vertical-align: middle;fill: currentColor;overflow: hidden;" viewBox="0 0 1024 1024" version="1.1" xmlns="http://www.w3.org/2000/svg"><path d="M911.15102 323.918367L689.632653 102.4c-18.808163-18.808163-50.155102-20.897959-71.053061-2.089796l-267.493878 229.877551-96.130612 14.628572c-6.269388 0-12.538776 4.179592-16.718367 8.359183l-58.514286 58.514286c-20.897959 20.897959-20.897959 54.334694 0 73.142857l152.555102 152.555102L125.387755 844.277551c-12.538776 12.538776-12.538776 31.346939 0 43.885714 6.269388 6.269388 14.628571 10.44898 20.897959 10.44898s16.718367-2.089796 22.987755-8.359184l204.8-204.8 152.555102 152.555102c10.44898 10.44898 22.987755 14.628571 37.616327 14.628572s27.167347-6.269388 37.616326-14.628572l58.514286-58.514285c4.179592-4.179592 8.359184-10.44898 8.359184-16.718368l14.628571-96.130612 227.787755-267.493878c18.808163-25.077551 18.808163-56.42449 0-75.232653zM631.118367 629.028571c-4.179592 4.179592-6.269388 10.44898-6.269387 14.628572l-14.628572 94.040816-45.97551 45.97551-334.367347-334.367347 43.885714-43.885714 94.040817-14.628571c6.269388 0 10.44898-4.179592 14.628571-6.269388l269.583674-229.877551 206.889795 206.889796-227.787755 267.493877z" /></svg>