<?xml version="1.0" standalone="no"?>
<!DOCTYPE svg PUBLIC "-//W3C//DTD SVG 1.1//EN" "http://www.w3.org/Graphics/SVG/1.1/DTD/svg11.dtd">
<svg class="icon" style="width: 1em;height: 1em;vertical-align: middle;fill: currentColor;overflow: hidden;" viewBox="0 0 1024 1024" version="1.1" xmlns="http://www.w3.org/2000/svg"><path d="M512 74.666667C270.933333 74.666667 74.666667 270.933333 74.666667 512S270.933333 949.333333 512 949.333333 949.333333 753.066667 949.333333 512 753.066667 74.666667 512 74.666667z m0 810.666666c-204.8 0-373.333333-168.533333-373.333333-373.333333S307.2 138.666667 512 138.666667 885.333333 307.2 885.333333 512 716.8 885.333333 512 885.333333zM708.266667 465.066667l-234.666667-134.4c-8.533333-4.266667-17.066667-6.4-25.6-6.4-29.866667 0-53.333333 23.466667-53.333333 53.333333v268.8c0 8.533333 2.133333 19.2 6.4 25.6 10.666667 17.066667 27.733333 27.733333 46.933333 27.733333 8.533333 0 17.066667-2.133333 25.6-6.4l234.666667-134.4c8.533333-4.266667 14.933333-10.666667 19.2-19.2 6.4-12.8 8.533333-27.733333 4.266666-40.533333-2.133333-14.933333-10.666667-25.6-23.466666-34.133333z m-249.6 162.133333V396.8L661.333333 512l-202.666666 115.2z" /></svg>