<?xml version="1.0" standalone="no"?>
<!DOCTYPE svg PUBLIC "-//W3C//DTD SVG 1.1//EN" "http://www.w3.org/Graphics/SVG/1.1/DTD/svg11.dtd">
<svg class="icon" style="width: 1em;height: 1em;vertical-align: middle;fill: currentColor;overflow: hidden;" viewBox="0 0 1024 1024" version="1.1" xmlns="http://www.w3.org/2000/svg"><path d="M416 128a32 32 0 0 1 32 32v704a32 32 0 0 1-32 32H160a32 32 0 0 1-32-32V160a32 32 0 0 1 32-32h256z m344 608c4.416 0 8 3.584 8 8v80h120c4.416 0 8 3.584 8 8v56a8 8 0 0 1-8 8H584a8 8 0 0 1-8-8v-56c0-4.416 3.584-8 8-8h120v-80c0-4.416 3.584-8 8-8h48zM376 200H200v624h176V200z m384 408c4.416 0 8 3.584 8 8v48a8 8 0 0 1-8 8h-48a8 8 0 0 1-8-8v-48c0-4.416 3.584-8 8-8h48z m0-128c4.416 0 8 3.584 8 8v48a8 8 0 0 1-8 8h-48a8 8 0 0 1-8-8v-48c0-4.416 3.584-8 8-8h48z m0-128c4.416 0 8 3.584 8 8v48a8 8 0 0 1-8 8h-48a8 8 0 0 1-8-8v-48c0-4.416 3.584-8 8-8h48z m128-224c4.416 0 8 3.584 8 8v56a8 8 0 0 1-8 8H768v80a8 8 0 0 1-8 8h-48a8 8 0 0 1-8-8v-80H584a8 8 0 0 1-8-8v-56c0-4.416 3.584-8 8-8h304z" /></svg>