<?xml version="1.0" standalone="no"?>
<!DOCTYPE svg PUBLIC "-//W3C//DTD SVG 1.1//EN" "http://www.w3.org/Graphics/SVG/1.1/DTD/svg11.dtd">
<svg class="icon" style="width: 1em;height: 1em;vertical-align: middle;fill: currentColor;overflow: hidden;" viewBox="0 0 1024 1024" version="1.1" xmlns="http://www.w3.org/2000/svg"><path d="M416 128a32 32 0 0 1 32 32v704a32 32 0 0 1-32 32h-256a32 32 0 0 1-32-32v-704a32 32 0 0 1 32-32h256z m344 608c4.416 0 8 3.584 8 8v80h120c4.416 0 8 3.584 8 8v56a8 8 0 0 1-8 8h-304A8 8 0 0 1 576 888V832c0-4.416 3.584-8 8-8H704v-80c0-4.416 3.584-8 8-8h48z m-384-536h-176v624h176v-624z m384 408c4.416 0 8 3.584 8 8v48a8 8 0 0 1-8 8h-48a8 8 0 0 1-8-8v-48c0-4.416 3.584-8 8-8h48z m0-128c4.416 0 8 3.584 8 8v48a8 8 0 0 1-8 8h-48A8 8 0 0 1 704 536v-48c0-4.416 3.584-8 8-8h48z m0-128c4.416 0 8 3.584 8 8v48a8 8 0 0 1-8 8h-48A8 8 0 0 1 704 408v-48c0-4.416 3.584-8 8-8h48z m128-224c4.416 0 8 3.584 8 8V192a8 8 0 0 1-8 8H768v80a8 8 0 0 1-8 8h-48A8 8 0 0 1 704 280v-80H584A8 8 0 0 1 576 192v-56C576 131.584 579.584 128 584 128h304z" fill="#595959" /></svg>