<?xml version="1.0" standalone="no"?>
<!DOCTYPE svg PUBLIC "-//W3C//DTD SVG 1.1//EN" "http://www.w3.org/Graphics/SVG/1.1/DTD/svg11.dtd">
<svg class="icon" style="width: 1em;height: 1em;vertical-align: middle;fill: currentColor;overflow: hidden;" viewBox="0 0 1024 1024" version="1.1" xmlns="http://www.w3.org/2000/svg"><path d="M409.6 294.661224l71.053061-71.053061v248.685715c0 16.718367 14.628571 31.346939 31.346939 31.346938s31.346939-14.628571 31.346939-31.346938v-250.775511l71.053061 71.053062c6.269388 6.269388 14.628571 8.359184 22.987755 8.359183s16.718367-2.089796 22.987755-8.359183c12.538776-12.538776 12.538776-31.346939 0-43.885715l-125.387755-125.387755c-12.538776-12.538776-31.346939-12.538776-43.885714 0l-125.387755 125.387755c-12.538776 12.538776-12.538776 31.346939 0 43.885715 10.44898 12.538776 31.346939 12.538776 43.885714 2.089795zM936.228571 451.395918l-242.416326-81.50204c-16.718367-6.269388-33.436735 4.179592-39.706123 18.808163-6.269388 16.718367 4.179592 33.436735 18.808164 39.706122l156.734694 52.244898L512 593.502041 194.35102 480.653061l156.734694-52.244898c16.718367-6.269388 25.077551-22.987755 18.808164-39.706122-6.269388-16.718367-22.987755-25.077551-39.706123-18.808163L87.771429 451.395918c-12.538776 4.179592-20.897959 16.718367-20.89796 29.257143 0 12.538776 8.359184 25.077551 20.89796 29.257143l413.779591 146.285714c4.179592 2.089796 6.269388 2.089796 10.44898 2.089796s6.269388 0 10.44898-2.089796l413.779591-146.285714c12.538776-4.179592 20.897959-16.718367 20.89796-29.257143 0-14.628571-8.359184-25.077551-20.89796-29.257143zM512 714.710204c-16.718367 0-31.346939 14.628571-31.346939 31.346939v156.734694c0 16.718367 14.628571 31.346939 31.346939 31.346939s31.346939-14.628571 31.346939-31.346939v-156.734694c0-16.718367-14.628571-31.346939-31.346939-31.346939z" /></svg>