<?xml version="1.0" standalone="no"?>
<!DOCTYPE svg PUBLIC "-//W3C//DTD SVG 1.1//EN" "http://www.w3.org/Graphics/SVG/1.1/DTD/svg11.dtd">
<svg class="icon" style="width: 1em;height: 1em;vertical-align: middle;fill: currentColor;overflow: hidden;" viewBox="0 0 1024 1024" version="1.1" xmlns="http://www.w3.org/2000/svg"><path d="M341.333333 864H170.666667c-6.4 0-10.666667-4.266667-10.666667-10.666667v-170.666666c0-17.066667-14.933333-32-32-32s-32 14.933333-32 32v170.666666c0 40.533333 34.133333 74.666667 74.666667 74.666667h170.666666c17.066667 0 32-14.933333 32-32s-14.933333-32-32-32zM896 650.666667c-17.066667 0-32 14.933333-32 32v170.666666c0 6.4-4.266667 10.666667-10.666667 10.666667h-170.666666c-17.066667 0-32 14.933333-32 32s14.933333 32 32 32h170.666666c40.533333 0 74.666667-34.133333 74.666667-74.666667v-170.666666c0-17.066667-14.933333-32-32-32zM128 373.333333c17.066667 0 32-14.933333 32-32V170.666667c0-6.4 4.266667-10.666667 10.666667-10.666667h170.666666c17.066667 0 32-14.933333 32-32s-14.933333-32-32-32H170.666667C130.133333 96 96 130.133333 96 170.666667v170.666666c0 17.066667 14.933333 32 32 32zM853.333333 96h-170.666666c-17.066667 0-32 14.933333-32 32s14.933333 32 32 32h170.666666c6.4 0 10.666667 4.266667 10.666667 10.666667v170.666666c0 17.066667 14.933333 32 32 32s32-14.933333 32-32V170.666667c0-40.533333-34.133333-74.666667-74.666667-74.666667zM896 469.333333H128c-17.066667 0-32 14.933333-32 32S110.933333 533.333333 128 533.333333h768c17.066667 0 32-14.933333 32-32S913.066667 469.333333 896 469.333333z" /></svg>