<?xml version="1.0" standalone="no"?>
<!DOCTYPE svg PUBLIC "-//W3C//DTD SVG 1.1//EN" "http://www.w3.org/Graphics/SVG/1.1/DTD/svg11.dtd">
<svg class="icon" style="width: 1em;height: 1em;vertical-align: middle;fill: currentColor;overflow: hidden;" viewBox="0 0 1024 1024" version="1.1" xmlns="http://www.w3.org/2000/svg"><path d="M268.629333 123.989333l588.885334 271.786667c99.157333 45.781333 99.157333 186.666667 0 232.448l-588.885334 271.786667c-101.802667 46.976-210.517333-50.346667-175.061333-156.672l63.573333-190.848a128 128 0 0 0 0-80.981334l-63.573333-190.848C58.112 174.336 166.826667 77.013333 268.629333 123.989333z m-26.837333 58.112c-49.194667-22.698667-101.632 21.973333-89.045333 73.045334l1.536 5.290666 63.573333 190.848c2.133333 6.272 3.882667 12.629333 5.333333 19.072l1.877334 9.642667H597.333333a32 32 0 0 1 4.352 63.701333L597.333333 544H225.066667a192 192 0 0 1-4.266667 19.242667l-2.901333 9.472-63.616 190.848c-17.152 51.413333 33.066667 98.56 82.432 80.469333l5.12-2.133333 588.885333-271.786667c47.658667-22.016 49.493333-87.978667 5.504-113.365333l-5.546667-2.858667-588.885333-271.786667z" /></svg>