<?xml version="1.0" standalone="no"?>
<!DOCTYPE svg PUBLIC "-//W3C//DTD SVG 1.1//EN" "http://www.w3.org/Graphics/SVG/1.1/DTD/svg11.dtd">
<svg class="icon" style="width: 1em;height: 1em;vertical-align: middle;fill: currentColor;overflow: hidden;" viewBox="0 0 1024 1024" version="1.1" xmlns="http://www.w3.org/2000/svg"><path d="M904.533333 422.4l-85.333333-14.933333-17.066667-38.4 49.066667-70.4c14.933333-21.333333 12.8-49.066667-6.4-68.266667l-53.333333-53.333333c-19.2-19.2-46.933333-21.333333-68.266667-6.4l-70.4 49.066666-38.4-17.066666-14.933333-85.333334c-2.133333-23.466667-23.466667-42.666667-49.066667-42.666666h-74.666667c-25.6 0-46.933333 19.2-53.333333 44.8l-14.933333 85.333333-38.4 17.066667L296.533333 170.666667c-21.333333-14.933333-49.066667-12.8-68.266666 6.4l-53.333334 53.333333c-19.2 19.2-21.333333 46.933333-6.4 68.266667l49.066667 70.4-17.066667 38.4-85.333333 14.933333c-21.333333 4.266667-40.533333 25.6-40.533333 51.2v74.666667c0 25.6 19.2 46.933333 44.8 53.333333l85.333333 14.933333 17.066667 38.4L170.666667 727.466667c-14.933333 21.333333-12.8 49.066667 6.4 68.266666l53.333333 53.333334c19.2 19.2 46.933333 21.333333 68.266667 6.4l70.4-49.066667 38.4 17.066667 14.933333 85.333333c4.266667 25.6 25.6 44.8 53.333333 44.8h74.666667c25.6 0 46.933333-19.2 53.333333-44.8l14.933334-85.333333 38.4-17.066667 70.4 49.066667c21.333333 14.933333 49.066667 12.8 68.266666-6.4l53.333334-53.333334c19.2-19.2 21.333333-46.933333 6.4-68.266666l-49.066667-70.4 17.066667-38.4 85.333333-14.933334c25.6-4.266667 44.8-25.6 44.8-53.333333v-74.666667c-4.266667-27.733333-23.466667-49.066667-49.066667-53.333333z m-19.2 117.333333l-93.866666 17.066667c-10.666667 2.133333-19.2 8.533333-23.466667 19.2l-29.866667 70.4c-4.266667 10.666667-2.133333 21.333333 4.266667 29.866667l53.333333 76.8-40.533333 40.533333-76.8-53.333333c-8.533333-6.4-21.333333-8.533333-29.866667-4.266667L576 768c-10.666667 4.266667-17.066667 12.8-19.2 23.466667l-17.066667 93.866666h-57.6l-17.066666-93.866666c-2.133333-10.666667-8.533333-19.2-19.2-23.466667l-70.4-29.866667c-10.666667-4.266667-21.333333-2.133333-29.866667 4.266667l-76.8 53.333333-40.533333-40.533333 53.333333-76.8c6.4-8.533333 8.533333-21.333333 4.266667-29.866667L256 576c-4.266667-10.666667-12.8-17.066667-23.466667-19.2l-93.866666-17.066667v-57.6l93.866666-17.066666c10.666667-2.133333 19.2-8.533333 23.466667-19.2l29.866667-70.4c4.266667-10.666667 2.133333-21.333333-4.266667-29.866667l-53.333333-76.8 40.533333-40.533333 76.8 53.333333c8.533333 6.4 21.333333 8.533333 29.866667 4.266667L448 256c10.666667-4.266667 17.066667-12.8 19.2-23.466667l17.066667-93.866666h57.6l17.066666 93.866666c2.133333 10.666667 8.533333 19.2 19.2 23.466667l70.4 29.866667c10.666667 4.266667 21.333333 2.133333 29.866667-4.266667l76.8-53.333333 40.533333 40.533333-53.333333 76.8c-6.4 8.533333-8.533333 21.333333-4.266667 29.866667L768 448c4.266667 10.666667 12.8 17.066667 23.466667 19.2l93.866666 17.066667v55.466666zM512 394.666667c-64 0-117.333333 53.333333-117.333333 117.333333s53.333333 117.333333 117.333333 117.333333 117.333333-53.333333 117.333333-117.333333-53.333333-117.333333-117.333333-117.333333z m0 170.666666c-29.866667 0-53.333333-23.466667-53.333333-53.333333s23.466667-53.333333 53.333333-53.333333 53.333333 23.466667 53.333333 53.333333-23.466667 53.333333-53.333333 53.333333z" /></svg>