<?xml version="1.0" standalone="no"?>
<!DOCTYPE svg PUBLIC "-//W3C//DTD SVG 1.1//EN" "http://www.w3.org/Graphics/SVG/1.1/DTD/svg11.dtd">
<svg class="icon" style="width: 1em;height: 1em;vertical-align: middle;fill: currentColor;overflow: hidden;" viewBox="0 0 1024 1024" version="1.1" xmlns="http://www.w3.org/2000/svg"><path d="M0 0h1024v1024H0zM468.906667 57.941333a68.394667 68.394667 0 0 1 86.165333 0l399.936 322.624c30.058667 24.234667 35.136 68.693333 11.328 99.328a69.269333 69.269333 0 0 1-37.802667 24.768l-3.712 0.810667 0.021334 361.514667c0 59.370667-44.48 108.48-102.528 113.877333l-4.736 0.362667-4.949334 0.106666H211.370667c-59.84 0-109.056-47.808-112.106667-109.312l-0.106667-5.034666-0.021333-361.514667-2.453333-0.490667c-29.696-6.848-52.16-33.088-53.909334-64.96L42.666667 436.010667c0-21.610667 9.685333-42.026667 26.325333-55.466667z m46.72 50.026667a5.76 5.76 0 0 0-7.253334 0L108.864 431.146667a6.058667 6.058667 0 0 0-2.218667 4.693333c0 3.328 2.624 6.016 5.866667 6.016h18.816c17.536-0.021333 31.744 14.506667 31.744 32.405333v392.533334l0.064 3.392C164.437333 896.533333 185.792 917.333333 211.712 917.333333h599.765333l3.328-0.085333c25.770667-1.322667 46.101333-23.146667 46.101334-49.621333V474.282667c0-17.92 14.208-32.426667 31.744-32.426667h18.816c1.792 0 3.477333-0.832 4.608-2.261333a6.101333 6.101333 0 0 0-0.96-8.426667z m138.133333 564.693333a32 32 0 0 1-3.754667 45.098667C610.858667 750.890667 568.106667 768 522.666667 768c-45.44 0-88.192-17.109333-127.36-50.24a32 32 0 1 1 41.386666-48.853333C464.704 692.650667 493.056 704 522.666667 704c29.589333 0 57.941333-11.349333 85.973333-35.093333a32 32 0 0 1 45.12 3.754666z" /></svg>