<?xml version="1.0" standalone="no"?>
<!DOCTYPE svg PUBLIC "-//W3C//DTD SVG 1.1//EN" "http://www.w3.org/Graphics/SVG/1.1/DTD/svg11.dtd">
<svg class="icon" style="width: 1em;height: 1em;vertical-align: middle;fill: currentColor;overflow: hidden;" viewBox="0 0 1024 1024" version="1.1" xmlns="http://www.w3.org/2000/svg"><path d="M810.666667 138.666667h-85.333334V128c0-29.866667-23.466667-53.333333-53.333333-53.333333h-320C322.133333 74.666667 298.666667 98.133333 298.666667 128v10.666667h-85.333334c-40.533333 0-74.666667 34.133333-74.666666 74.666666v661.333334c0 40.533333 34.133333 74.666667 74.666666 74.666666h597.333334c40.533333 0 74.666667-34.133333 74.666666-74.666666V213.333333c0-40.533333-34.133333-74.666667-74.666666-74.666666z m-149.333334 0v64H362.666667v-64h298.666666zM821.333333 874.666667c0 6.4-4.266667 10.666667-10.666666 10.666666H213.333333c-6.4 0-10.666667-4.266667-10.666666-10.666666V213.333333c0-6.4 4.266667-10.666667 10.666666-10.666666h85.333334v10.666666c0 29.866667 23.466667 53.333333 53.333333 53.333334h320c29.866667 0 53.333333-23.466667 53.333333-53.333334v-10.666666h85.333334c6.4 0 10.666667 4.266667 10.666666 10.666666v661.333334zM659.2 445.866667l-211.2 213.333333-83.2-83.2c-12.8-12.8-32-12.8-44.8 0s-12.8 32 0 44.8l106.666667 106.666667c6.4 6.4 14.933333 8.533333 23.466666 8.533333s17.066667-2.133333 23.466667-8.533333l234.666667-234.666667c12.8-12.8 12.8-32 0-44.8-14.933333-12.8-36.266667-12.8-49.066667-2.133333z" /></svg>