<?xml version="1.0" standalone="no"?>
<!DOCTYPE svg PUBLIC "-//W3C//DTD SVG 1.1//EN" "http://www.w3.org/Graphics/SVG/1.1/DTD/svg11.dtd">
<svg class="icon" style="width: 1em;height: 1em;vertical-align: middle;fill: currentColor;overflow: hidden;" viewBox="0 0 1024 1024" version="1.1" xmlns="http://www.w3.org/2000/svg"><path d="M846.933333 115.2c-8.533333-6.4-21.333333-6.4-29.866666-2.133333 0 0-74.666667 34.133333-174.933334 34.133333-49.066667 0-96-17.066667-145.066666-34.133333-53.333333-19.2-106.666667-38.4-166.4-38.4-119.466667 0-162.133333 40.533333-168.533334 44.8-4.266667 6.4-8.533333 14.933333-8.533333 23.466666V917.333333c0 17.066667 14.933333 32 32 32s32-14.933333 32-32V595.2c14.933333-8.533333 51.2-21.333333 113.066667-21.333333 49.066667 0 96 17.066667 145.066666 34.133333 53.333333 19.2 106.666667 38.4 166.4 38.4 115.2 0 198.4-38.4 200.533334-38.4 10.666667-4.266667 19.2-17.066667 19.2-29.866667V142.933333c0-10.666667-6.4-21.333333-14.933334-27.733333z m-49.066666 441.6c-27.733333 10.666667-85.333333 25.6-155.733334 25.6-49.066667 0-96-17.066667-145.066666-34.133333-53.333333-19.2-106.666667-38.4-166.4-38.4-49.066667 0-87.466667 6.4-113.066667 17.066666V160c14.933333-8.533333 51.2-21.333333 113.066667-21.333333 49.066667 0 96 17.066667 145.066666 34.133333 53.333333 19.2 106.666667 38.4 166.4 38.4 64 0 119.466667-12.8 155.733334-23.466667v369.066667z" /></svg>