<?xml version="1.0" standalone="no"?>
<!DOCTYPE svg PUBLIC "-//W3C//DTD SVG 1.1//EN" "http://www.w3.org/Graphics/SVG/1.1/DTD/svg11.dtd">
<svg class="icon" style="width: 1em;height: 1em;vertical-align: middle;fill: currentColor;overflow: hidden;" viewBox="0 0 1024 1024" version="1.1" xmlns="http://www.w3.org/2000/svg"><path d="M817.066667 586.666667c-32-4.266667-64-12.8-96-23.466667-38.4-14.933333-81.066667-4.266667-110.933334 23.466667l-27.733333 27.733333c-70.4-44.8-130.133333-102.4-172.8-172.8l27.733333-27.733333c27.733333-29.866667 38.4-72.533333 23.466667-110.933334-10.666667-29.866667-19.2-61.866667-23.466667-96-6.4-51.2-51.2-89.6-104.533333-89.6h-108.8c-32 0-59.733333 12.8-78.933333 34.133334-19.2 21.333333-29.866667 51.2-27.733334 81.066666 12.8 117.333333 53.333333 230.4 117.333334 328.533334 57.6 91.733333 136.533333 170.666667 228.266666 228.266666 98.133333 64 211.2 104.533333 328.533334 117.333334h8.533333c25.6 0 51.2-10.666667 70.4-27.733334 21.333333-19.2 34.133333-49.066667 34.133333-76.8v-108.8c4.266667-53.333333-36.266667-98.133333-87.466666-106.666666z m25.6 106.666666v108.8c0 10.666667-4.266667 23.466667-12.8 29.866667-8.533333 8.533333-19.2 10.666667-29.866667 10.666667-106.666667-10.666667-211.2-49.066667-300.8-106.666667-83.2-53.333333-155.733333-125.866667-209.066667-209.066667-57.6-89.6-96-194.133333-106.666666-300.8 0-10.666667 2.133333-23.466667 10.666666-32 8.533333-8.533333 19.2-12.8 29.866667-12.8h108.8c21.333333 0 38.4 14.933333 40.533333 34.133334 4.266667 36.266667 14.933333 74.666667 27.733334 108.8 6.4 14.933333 2.133333 32-8.533334 42.666666l-46.933333 46.933334c-10.666667 10.666667-12.8 25.6-4.266667 38.4 55.466667 96 134.4 174.933333 230.4 230.4 12.8 6.4 27.733333 4.266667 38.4-4.266667l46.933334-46.933333c10.666667-10.666667 27.733333-14.933333 42.666666-8.533334 36.266667 12.8 72.533333 21.333333 108.8 27.733334 19.2 2.133333 34.133333 19.2 34.133334 42.666666 0-2.133333 0-2.133333 0 0z" /></svg>