<?xml version="1.0" standalone="no"?>
<!DOCTYPE svg PUBLIC "-//W3C//DTD SVG 1.1//EN" "http://www.w3.org/Graphics/SVG/1.1/DTD/svg11.dtd">
<svg class="icon" style="width: 1em;height: 1em;vertical-align: middle;fill: currentColor;overflow: hidden;" viewBox="0 0 1024 1024" version="1.1" xmlns="http://www.w3.org/2000/svg"><path d="M512 74.666667C270.933333 74.666667 74.666667 270.933333 74.666667 512S270.933333 949.333333 512 949.333333 949.333333 753.066667 949.333333 512 753.066667 74.666667 512 74.666667z m0 810.666666c-204.8 0-373.333333-168.533333-373.333333-373.333333S307.2 138.666667 512 138.666667 885.333333 307.2 885.333333 512 716.8 885.333333 512 885.333333zM695.466667 567.466667l-151.466667-70.4V277.333333c0-17.066667-14.933333-32-32-32s-32 14.933333-32 32v238.933334c0 12.8 6.4 23.466667 19.2 29.866666l170.666667 81.066667c4.266667 2.133333 8.533333 2.133333 12.8 2.133333 12.8 0 23.466667-6.4 29.866666-19.2 6.4-14.933333 0-34.133333-17.066666-42.666666z" /></svg>