<?xml version="1.0" standalone="no"?>
<!DOCTYPE svg PUBLIC "-//W3C//DTD SVG 1.1//EN" "http://www.w3.org/Graphics/SVG/1.1/DTD/svg11.dtd">
<svg class="icon" style="width: 1em;height: 1em;vertical-align: middle;fill: currentColor;overflow: hidden;" viewBox="0 0 1024 1024" version="1.1" xmlns="http://www.w3.org/2000/svg"><path d="M874.666667 800H149.333333c-17.066667 0-32 14.933333-32 32s14.933333 32 32 32h725.333334c17.066667 0 32-14.933333 32-32s-14.933333-32-32-32zM149.333333 224h725.333334c17.066667 0 32-14.933333 32-32s-14.933333-32-32-32H149.333333c-17.066667 0-32 14.933333-32 32s14.933333 32 32 32zM149.333333 544h512c17.066667 0 32-14.933333 32-32s-14.933333-32-32-32H149.333333c-17.066667 0-32 14.933333-32 32s14.933333 32 32 32zM748.8 339.2c-12.8-12.8-32-12.8-44.8 0-12.8 12.8-12.8 32 0 44.8l125.866667 125.866667-125.866667 125.866666c-12.8 12.8-12.8 32 0 44.8 6.4 6.4 14.933333 8.533333 23.466667 8.533334s17.066667-2.133333 23.466666-8.533334l149.333334-149.333333c12.8-12.8 12.8-32 0-44.8l-151.466667-147.2z" /></svg>