<?xml version="1.0" standalone="no"?>
<!DOCTYPE svg PUBLIC "-//W3C//DTD SVG 1.1//EN" "http://www.w3.org/Graphics/SVG/1.1/DTD/svg11.dtd">
<svg class="icon" style="width: 1em;height: 1em;vertical-align: middle;fill: currentColor;overflow: hidden;" viewBox="0 0 1024 1024" version="1.1" xmlns="http://www.w3.org/2000/svg"><path d="M854.6 288.7c6 6 9.4 14.1 9.4 22.6V928c0 17.7-14.3 32-32 32H192c-17.7 0-32-14.3-32-32V96c0-17.7 14.3-32 32-32h424.7c8.5 0 16.7 3.4 22.7 9.4l215.2 215.3zM790.2 326L602 137.8V326h188.2zM402 549c0 5.4 4.4 9.5 9.8 9.5h32.4c5.4 0 9.8-4.2 9.8-9.4 0-28.2 25.8-51.6 58-51.6s58 23.4 58 51.5c0 25.3-21 47.2-49.3 50.9-19.3 2.8-34.5 20.3-34.7 40.1v32c0 5.5 4.5 10 10 10h32c5.5 0 10-4.5 10-10v-12.2c0-6 4-11.5 9.7-13.3 44.6-14.4 75-54 74.3-98.9-0.8-55.5-49.2-100.8-108.5-101.6-61.4-0.7-111.5 45.6-111.5 103z m110 227c17.673 0 32-14.327 32-32 0-17.673-14.327-32-32-32-17.673 0-32 14.327-32 32 0 17.673 14.327 32 32 32z" fill="#7233E8" /></svg>