<?xml version="1.0" standalone="no"?>
<!DOCTYPE svg PUBLIC "-//W3C//DTD SVG 1.1//EN" "http://www.w3.org/Graphics/SVG/1.1/DTD/svg11.dtd">
<svg class="icon" style="width: 1em;height: 1em;vertical-align: middle;fill: currentColor;overflow: hidden;" viewBox="0 0 1024 1024" version="1.1" xmlns="http://www.w3.org/2000/svg"><path d="M785.066667 416H381.866667v-121.6c0-74.666667 61.866667-134.4 138.666666-134.4 59.733333 0 113.066667 36.266667 132.266667 91.733333 6.4 17.066667 23.466667 25.6 40.533333 19.2 17.066667-6.4 25.6-23.466667 19.2-40.533333-27.733333-81.066667-104.533333-134.4-192-134.4-110.933333 0-202.666667 89.6-202.666666 198.4v121.6h-78.933334c-55.466667 0-100.266667 44.8-100.266666 100.266667v311.466666c0 55.466667 44.8 100.266667 100.266666 100.266667h546.133334c55.466667 0 100.266667-44.8 100.266666-100.266667V516.266667c0-55.466667-44.8-100.266667-100.266666-100.266667z m36.266666 411.733333c0 19.2-17.066667 36.266667-36.266666 36.266667H238.933333c-19.2 0-36.266667-17.066667-36.266666-36.266667V516.266667c0-19.2 17.066667-36.266667 36.266666-36.266667h546.133334c19.2 0 36.266667 17.066667 36.266666 36.266667v311.466666zM512 544c-17.066667 0-32 14.933333-32 32v106.666667c0 17.066667 14.933333 32 32 32s32-14.933333 32-32v-106.666667c0-17.066667-14.933333-32-32-32z" /></svg>