<?xml version="1.0" standalone="no"?>
<!DOCTYPE svg PUBLIC "-//W3C//DTD SVG 1.1//EN" "http://www.w3.org/Graphics/SVG/1.1/DTD/svg11.dtd">
<svg class="icon" style="width: 1em;height: 1em;vertical-align: middle;fill: currentColor;overflow: hidden;" viewBox="0 0 1024 1024" version="1.1" xmlns="http://www.w3.org/2000/svg"><path d="M934.4 770.133333L605.866667 181.333333C586.666667 147.2 550.4 128 512 128c-38.4 0-74.666667 21.333333-93.866667 53.333333L89.6 770.133333c-19.2 34.133333-19.2 76.8 0 110.933334S145.066667 938.666667 183.466667 938.666667h657.066666c38.4 0 74.666667-21.333333 93.866667-57.6 19.2-34.133333 19.2-76.8 0-110.933334z m-55.466667 81.066667c-8.533333 14.933333-23.466667 23.466667-38.4 23.466667H183.466667c-14.933333 0-29.866667-8.533333-38.4-23.466667-8.533333-14.933333-8.533333-34.133333 0-49.066667L473.6 213.333333c8.533333-12.8 23.466667-21.333333 38.4-21.333333s29.866667 8.533333 38.4 21.333333l328.533333 588.8c8.533333 14.933333 8.533333 32 0 49.066667zM512 746.666667m-42.666667 0a42.666667 42.666667 0 1 0 85.333334 0 42.666667 42.666667 0 1 0-85.333334 0ZM512 629.333333c17.066667 0 32-14.933333 32-32v-192c0-17.066667-14.933333-32-32-32s-32 14.933333-32 32v192c0 17.066667 14.933333 32 32 32z" /></svg>