<?xml version="1.0" standalone="no"?>
<!DOCTYPE svg PUBLIC "-//W3C//DTD SVG 1.1//EN" "http://www.w3.org/Graphics/SVG/1.1/DTD/svg11.dtd">
<svg class="icon" style="width: 1em;height: 1em;vertical-align: middle;fill: currentColor;overflow: hidden;" viewBox="0 0 1024 1024" version="1.1" xmlns="http://www.w3.org/2000/svg"><path d="M945.066667 898.133333l-189.866667-189.866666c55.466667-64 87.466667-149.333333 87.466667-241.066667 0-204.8-168.533333-373.333333-373.333334-373.333333S96 264.533333 96 469.333333 264.533333 842.666667 469.333333 842.666667c91.733333 0 174.933333-34.133333 241.066667-87.466667l189.866667 189.866667c6.4 6.4 14.933333 8.533333 23.466666 8.533333s17.066667-2.133333 23.466667-8.533333c8.533333-12.8 8.533333-34.133333-2.133333-46.933334zM469.333333 778.666667C298.666667 778.666667 160 640 160 469.333333S298.666667 160 469.333333 160 778.666667 298.666667 778.666667 469.333333 640 778.666667 469.333333 778.666667zM597.333333 437.333333h-96V341.333333c0-17.066667-14.933333-32-32-32s-32 14.933333-32 32v96H341.333333c-17.066667 0-32 14.933333-32 32s14.933333 32 32 32h96V597.333333c0 17.066667 14.933333 32 32 32s32-14.933333 32-32v-96H597.333333c17.066667 0 32-14.933333 32-32s-14.933333-32-32-32z" /></svg>